EBGaramondVF-DisplayCompressed_XBold.ufo
<glyph name="numbersign" format="1">
  <advance width="492"/>
  <unicode hex="0023"/>
  <outline>
    <contour>
      <point x="77" y="-80" type="curve" smooth="yes"/>
      <point x="83" y="-80"/>
      <point x="88" y="-78"/>
      <point x="90" y="-69" type="curve" smooth="yes"/>
      <point x="123" y="65" type="line"/>
      <point x="261" y="71" type="line"/>
      <point x="230" y="-57" type="line"/>
      <point x="229" y="-63" type="line" smooth="yes"/>
      <point x="229" y="-67"/>
      <point x="231" y="-69"/>
      <point x="233" y="-69" type="curve" smooth="yes"/>
      <point x="240" y="-69"/>
      <point x="245" y="-67"/>
      <point x="247" y="-59" type="curve" smooth="yes"/>
      <point x="280" y="73" type="line"/>
      <point x="349" y="76" type="line" smooth="yes"/>
      <point x="382" y="78"/>
      <point x="395" y="156"/>
      <point x="395" y="177" type="curve" smooth="yes"/>
      <point x="395" y="192"/>
      <point x="387" y="202"/>
      <point x="378" y="202" type="curve"/>
      <point x="310" y="199" type="line"/>
      <point x="336" y="304" type="line"/>
      <point x="401" y="307" type="line" smooth="yes"/>
      <point x="435" y="309"/>
      <point x="448" y="396"/>
      <point x="448" y="419" type="curve" smooth="yes"/>
      <point x="448" y="427"/>
      <point x="442" y="431"/>
      <point x="434" y="431" type="curve"/>
      <point x="367" y="428" type="line"/>
      <point x="398" y="556" type="line"/>
      <point x="399" y="559"/>
      <point x="399" y="561"/>
      <point x="399" y="563" type="curve" smooth="yes"/>
      <point x="399" y="566"/>
      <point x="397" y="569"/>
      <point x="394" y="569" type="curve" smooth="yes"/>
      <point x="388" y="569"/>
      <point x="382" y="568"/>
      <point x="380" y="557" type="curve" smooth="yes"/>
      <point x="348" y="426" type="line"/>
      <point x="211" y="420" type="line"/>
      <point x="240" y="542" type="line"/>
      <point x="241" y="546"/>
      <point x="242" y="549"/>
      <point x="242" y="552" type="curve" smooth="yes"/>
      <point x="242" y="555"/>
      <point x="240" y="558"/>
      <point x="236" y="558" type="curve" smooth="yes"/>
      <point x="230" y="558"/>
      <point x="225" y="555"/>
      <point x="223" y="546" type="curve" smooth="yes"/>
      <point x="192" y="418" type="line"/>
      <point x="112" y="415" type="line" smooth="yes"/>
      <point x="77" y="414"/>
      <point x="72" y="334"/>
      <point x="72" y="312" type="curve" smooth="yes"/>
      <point x="72" y="300"/>
      <point x="83" y="291"/>
      <point x="94" y="291" type="curve"/>
      <point x="161" y="294" type="line"/>
      <point x="135" y="189" type="line"/>
      <point x="57" y="186" type="line" smooth="yes"/>
      <point x="22" y="185"/>
      <point x="17" y="97"/>
      <point x="17" y="73" type="curve" smooth="yes"/>
      <point x="17" y="66"/>
      <point x="24" y="60"/>
      <point x="32" y="60" type="curve"/>
      <point x="105" y="63" type="line"/>
      <point x="73" y="-65" type="line"/>
      <point x="72" y="-74" type="line" smooth="yes"/>
      <point x="72" y="-78"/>
      <point x="73" y="-80"/>
    </contour>
    <contour>
      <point x="154" y="191" type="line"/>
      <point x="180" y="296" type="line"/>
      <point x="317" y="302" type="line"/>
      <point x="292" y="197" type="line"/>
    </contour>
  </outline>
</glyph>
<glyph name="dollar" format="1">
  <advance width="587"/>
  <unicode hex="0024"/>
  <outline>
    <contour>
      <point x="254" y="-82" type="curve" smooth="yes"/>
      <point x="258" y="-82"/>
      <point x="263" y="-78"/>
      <point x="264" y="-71" type="curve" smooth="yes"/>
      <point x="272" y="-3" type="line" smooth="yes"/>
      <point x="272" y="2"/>
      <point x="276" y="4"/>
      <point x="282" y="4" type="curve" smooth="yes"/>
      <point x="433" y="3"/>
      <point x="544" y="92"/>
      <point x="544" y="211" type="curve" smooth="yes"/>
      <point x="544" y="305"/>
      <point x="478" y="352"/>
      <point x="338" y="390" type="curve"/>
      <point x="324" y="396"/>
      <point x="325" y="398"/>
      <point x="326" y="403" type="curve" smooth="yes"/>
      <point x="346" y="562" type="line"/>
      <point x="347" y="567"/>
      <point x="350" y="570"/>
      <point x="354" y="570" type="curve" smooth="yes"/>
      <point x="435" y="575"/>
      <point x="475" y="525"/>
      <point x="501" y="462" type="curve" smooth="yes"/>
      <point x="503" y="457"/>
      <point x="512" y="449"/>
      <point x="523" y="449" type="curve" smooth="yes"/>
      <point x="530" y="449"/>
      <point x="535" y="453"/>
      <point x="535" y="460" type="curve" smooth="yes"/>
      <point x="535" y="487"/>
      <point x="524" y="520"/>
      <point x="516" y="545" type="curve" smooth="yes"/>
      <point x="513" y="553"/>
      <point x="501" y="563"/>
      <point x="488" y="566" type="curve" smooth="yes"/>
      <point x="463" y="572"/>
      <point x="419" y="587"/>
      <point x="355" y="585" type="curve" smooth="yes"/>
      <point x="352" y="585"/>
      <point x="350" y="588"/>
      <point x="350" y="594" type="curve" smooth="yes"/>
      <point x="351" y="611"/>
      <point x="355" y="643"/>
      <point x="356" y="648" type="curve"/>
      <point x="356" y="654"/>
      <point x="353" y="658"/>
      <point x="349" y="658" type="curve" smooth="yes"/>
      <point x="343" y="658"/>
      <point x="339" y="656"/>
      <point x="338" y="644" type="curve" smooth="yes"/>
      <point x="333" y="592" type="line" smooth="yes"/>
      <point x="333" y="588"/>
      <point x="332" y="585"/>
      <point x="329" y="585" type="curve" smooth="yes"/>
      <point x="126" y="583"/>
      <point x="62" y="499"/>
      <point x="62" y="405" type="curve" smooth="yes"/>
      <point x="62" y="306"/>
      <point x="159" y="254"/>
      <point x="274" y="228" type="curve" smooth="yes"/>
      <point x="282" y="224"/>
      <point x="284" y="220"/>
      <point x="283" y="215" type="curve" smooth="yes"/>
      <point x="259" y="27" type="line" smooth="yes"/>
      <point x="259" y="22"/>
      <point x="255" y="21"/>
      <point x="250" y="22" type="curve"/>
      <point x="172" y="30"/>
      <point x="100" y="57"/>
      <point x="66" y="161" type="curve" smooth="yes"/>
      <point x="63" y="167"/>
      <point x="60" y="172"/>
      <point x="54" y="172" type="curve" smooth="yes"/>
      <point x="46" y="172"/>
      <point x="40" y="166"/>
      <point x="40" y="159" type="curve"/>
      <point x="42" y="135"/>
      <point x="44" y="89"/>
      <point x="53" y="66" type="curve" smooth="yes"/>
      <point x="55" y="59"/>
      <point x="63" y="53"/>
      <point x="69" y="49" type="curve" smooth="yes"/>
      <point x="113" y="27"/>
      <point x="184" y="4"/>
      <point x="246" y="5" type="curve" smooth="yes"/>
      <point x="250" y="5"/>
      <point x="255" y="3"/>
      <point x="254" y="-3" type="curve"/>
      <point x="246" y="-70" type="line" smooth="yes"/>
      <point x="245" y="-75"/>
      <point x="249" y="-82"/>
    </contour>
    <contour>
      <point x="286" y="19" type="curve"/>
      <point x="279" y="19"/>
      <point x="277" y="21"/>
      <point x="277" y="29" type="curve"/>
      <point x="301" y="217" type="line" smooth="yes"/>
      <point x="301" y="221"/>
      <point x="304" y="224"/>
      <point x="308" y="223" type="curve"/>
      <point x="415" y="204"/>
      <point x="436" y="172"/>
      <point x="436" y="129" type="curve" smooth="yes"/>
      <point x="436" y="78"/>
      <point x="377" y="18"/>
    </contour>
    <contour>
      <point x="300" y="399" type="curve"/>
      <point x="216" y="418"/>
      <point x="182" y="449"/>
      <point x="182" y="482" type="curve" smooth="yes"/>
      <point x="182" y="526"/>
      <point x="227" y="571"/>
      <point x="323" y="570" type="curve"/>
      <point x="328" y="570"/>
      <point x="331" y="568"/>
      <point x="330" y="562" type="curve"/>
      <point x="309" y="403" type="line"/>
      <point x="309" y="399"/>
      <point x="306" y="397"/>
    </contour>
  </outline>
</glyph>
<glyph name="ampersand" format="1">
  <advance width="986"/>
  <unicode hex="0026"/>
  <outline>
    <contour>
      <point x="258" y="-15" type="curve" smooth="yes"/>
      <point x="375" y="-15"/>
      <point x="439" y="38"/>
      <point x="519" y="106" type="curve"/>
      <point x="532" y="116" type="line"/>
      <point x="549" y="92" type="line" smooth="yes"/>
      <point x="594" y="27"/>
      <point x="632" y="-14"/>
      <point x="754" y="-14" type="curve" smooth="yes"/>
      <point x="836" y="-14"/>
      <point x="942" y="36"/>
      <point x="942" y="58" type="curve" smooth="yes"/>
      <point x="942" y="62"/>
      <point x="942" y="65"/>
      <point x="934" y="65" type="curve" smooth="yes"/>
      <point x="930" y="65"/>
      <point x="922" y="59"/>
      <point x="913" y="54" type="curve" smooth="yes"/>
      <point x="894" y="44"/>
      <point x="868" y="33"/>
      <point x="827" y="33" type="curve" smooth="yes"/>
      <point x="769" y="33"/>
      <point x="718" y="80"/>
      <point x="669" y="141" type="curve" smooth="yes"/>
      <point x="647" y="170" type="line"/>
      <point x="647" y="170"/>
      <point x="833" y="347"/>
      <point x="848" y="358" type="curve" smooth="yes"/>
      <point x="867" y="371"/>
      <point x="896" y="386"/>
      <point x="932" y="388" type="curve"/>
      <point x="950" y="389"/>
      <point x="966" y="396"/>
      <point x="966" y="403" type="curve" smooth="yes"/>
      <point x="966" y="407"/>
      <point x="957" y="411"/>
      <point x="950" y="411" type="curve" smooth="yes"/>
      <point x="917" y="411"/>
      <point x="859" y="402"/>
      <point x="818" y="402" type="curve" smooth="yes"/>
      <point x="798" y="402"/>
      <point x="730" y="405"/>
      <point x="721" y="405" type="curve" smooth="yes"/>
      <point x="716" y="405"/>
      <point x="691" y="404"/>
      <point x="691" y="396" type="curve" smooth="yes"/>
      <point x="691" y="392"/>
      <point x="704" y="389"/>
      <point x="719" y="386" type="curve"/>
      <point x="756" y="382"/>
      <point x="759" y="371"/>
      <point x="759" y="362" type="curve" smooth="yes"/>
      <point x="759" y="341"/>
      <point x="702" y="252"/>
      <point x="658" y="199" type="curve" smooth="yes"/>
      <point x="641" y="179" type="line"/>
      <point x="624" y="199" type="line" smooth="yes"/>
      <point x="577" y="252"/>
      <point x="541" y="292"/>
      <point x="489" y="346" type="curve" smooth="yes"/>
      <point x="476" y="360" type="line"/>
      <point x="490" y="365" type="line" smooth="yes"/>
      <point x="556" y="389"/>
      <point x="650" y="426"/>
      <point x="650" y="477" type="curve" smooth="yes"/>
      <point x="650" y="529"/>
      <point x="585" y="599"/>
      <point x="450" y="599" type="curve" smooth="yes"/>
      <point x="342" y="599"/>
      <point x="232" y="554"/>
      <point x="232" y="484" type="curve" smooth="yes"/>
      <point x="232" y="437"/>
      <point x="273" y="403"/>
      <point x="306" y="368" type="curve"/>
      <point x="326" y="346" type="line"/>
      <point x="298" y="337" type="line" smooth="yes"/>
      <point x="144" y="291"/>
      <point x="38" y="235"/>
      <point x="38" y="127" type="curve" smooth="yes"/>
      <point x="38" y="45"/>
      <point x="128" y="-15"/>
    </contour>
    <contour>
      <point x="348" y="49" type="curve" smooth="yes"/>
      <point x="272" y="49"/>
      <point x="214" y="92"/>
      <point x="214" y="160" type="curve" smooth="yes"/>
      <point x="214" y="219"/>
      <point x="222" y="293"/>
      <point x="315" y="329" type="curve" smooth="yes"/>
      <point x="336" y="337" type="line"/>
      <point x="351" y="321" type="line" smooth="yes"/>
      <point x="409" y="259"/>
      <point x="470" y="192"/>
      <point x="508" y="144" type="curve" smooth="yes"/>
      <point x="524" y="124" type="line"/>
      <point x="508" y="113" type="line" smooth="yes"/>
      <point x="458" y="72"/>
      <point x="409" y="49"/>
    </contour>
    <contour>
      <point x="465" y="368" type="line"/>
      <point x="449" y="387" type="line" smooth="yes"/>
      <point x="398" y="449"/>
      <point x="382" y="471"/>
      <point x="382" y="516" type="curve" smooth="yes"/>
      <point x="382" y="557"/>
      <point x="418" y="588"/>
      <point x="458" y="588" type="curve" smooth="yes"/>
      <point x="504" y="588"/>
      <point x="526" y="537"/>
      <point x="526" y="485" type="curve" smooth="yes"/>
      <point x="526" y="441"/>
      <point x="515" y="394"/>
      <point x="478" y="374" type="curve" smooth="yes"/>
    </contour>
  </outline>
</glyph>
<glyph name="asterisk" format="1">
  <advance width="340"/>
  <unicode hex="002A"/>
  <outline>
    <contour>
      <point x="185" y="365" type="curve" smooth="yes"/>
      <point x="195" y="365"/>
      <point x="199" y="379"/>
      <point x="200" y="392" type="curve"/>
      <point x="203" y="425"/>
      <point x="202" y="455"/>
      <point x="203" y="475" type="curve"/>
      <point x="226" y="469"/>
      <point x="252" y="460"/>
      <point x="279" y="454" type="curve" smooth="yes"/>
      <point x="294" y="450"/>
      <point x="311" y="454"/>
      <point x="311" y="463" type="curve" smooth="yes"/>
      <point x="311" y="469"/>
      <point x="304" y="478"/>
      <point x="296" y="482" type="curve"/>
      <point x="264" y="502"/>
      <point x="242" y="512"/>
      <point x="223" y="524" type="curve"/>
      <point x="280" y="579" type="line"/>
      <point x="288" y="586"/>
      <point x="292" y="594"/>
      <point x="292" y="601" type="curve" smooth="yes"/>
      <point x="292" y="608"/>
      <point x="288" y="615"/>
      <point x="280" y="615" type="curve" smooth="yes"/>
      <point x="274" y="615"/>
      <point x="267" y="611"/>
      <point x="261" y="608" type="curve"/>
      <point x="234" y="593"/>
      <point x="207" y="579"/>
      <point x="191" y="568" type="curve"/>
      <point x="172" y="648" type="line" smooth="yes"/>
      <point x="169" y="660"/>
      <point x="165" y="672"/>
      <point x="156" y="672" type="curve" smooth="yes"/>
      <point x="146" y="672"/>
      <point x="142" y="657"/>
      <point x="141" y="643" type="curve" smooth="yes"/>
      <point x="138" y="613"/>
      <point x="139" y="587"/>
      <point x="138" y="562" type="curve"/>
      <point x="115" y="571"/>
      <point x="89" y="580"/>
      <point x="62" y="587" type="curve"/>
      <point x="47" y="592"/>
      <point x="29" y="589"/>
      <point x="29" y="577" type="curve" smooth="yes"/>
      <point x="29" y="567"/>
      <point x="39" y="560"/>
      <point x="48" y="555" type="curve"/>
      <point x="74" y="539"/>
      <point x="100" y="524"/>
      <point x="116" y="513" type="curve"/>
      <point x="59" y="459" type="line"/>
      <point x="52" y="454"/>
      <point x="47" y="447"/>
      <point x="47" y="438" type="curve" smooth="yes"/>
      <point x="47" y="431"/>
      <point x="51" y="425"/>
      <point x="62" y="425" type="curve" smooth="yes"/>
      <point x="68" y="425"/>
      <point x="72" y="428"/>
      <point x="78" y="431" type="curve"/>
      <point x="105" y="445"/>
      <point x="130" y="461"/>
      <point x="149" y="470" type="curve"/>
      <point x="169" y="389" type="line" smooth="yes"/>
      <point x="172" y="376"/>
      <point x="177" y="365"/>
    </contour>
  </outline>
</glyph>
<glyph name="hyphen" format="1">
  <advance width="274"/>
  <unicode hex="002D"/>
  <outline>
    <contour>
      <point x="35" y="159" type="curve"/>
      <point x="99" y="163"/>
      <point x="162" y="170"/>
      <point x="224" y="174" type="curve" smooth="yes"/>
      <point x="240" y="176"/>
      <point x="245" y="186"/>
      <point x="245" y="194" type="curve" smooth="yes"/>
      <point x="245" y="197"/>
      <point x="241" y="197"/>
      <point x="237" y="197" type="curve"/>
      <point x="173" y="192"/>
      <point x="109" y="187"/>
      <point x="45" y="181" type="curve"/>
      <point x="35" y="180"/>
      <point x="29" y="169"/>
      <point x="29" y="160" type="curve" smooth="yes"/>
      <point x="29" y="159"/>
      <point x="30" y="159"/>
    </contour>
  </outline>
</glyph>
<glyph name="zero" format="1">
  <advance width="806"/>
  <unicode hex="0030"/>
  <outline>
    <contour>
      <point x="394" y="-14" type="curve" smooth="yes"/>
      <point x="660" y="-14"/>
      <point x="772" y="153"/>
      <point x="772" y="292" type="curve" smooth="yes"/>
      <point x="772" y="426"/>
      <point x="657" y="583"/>
      <point x="412" y="583" type="curve" smooth="yes"/>
      <point x="146" y="583"/>
      <point x="35" y="420"/>
      <point x="35" y="279" type="curve" smooth="yes"/>
      <point x="35" y="142"/>
      <point x="150" y="-14"/>
    </contour>
    <contour>
      <point x="415" y="-1" type="curve" smooth="yes"/>
      <point x="325" y="-1"/>
      <point x="281" y="152"/>
      <point x="281" y="297" type="curve" smooth="yes"/>
      <point x="281" y="441"/>
      <point x="309" y="568"/>
      <point x="389" y="568" type="curve" smooth="yes"/>
      <point x="479" y="568"/>
      <point x="526" y="420"/>
      <point x="526" y="275" type="curve" smooth="yes"/>
      <point x="526" y="131"/>
      <point x="495" y="-1"/>
    </contour>
  </outline>
</glyph>
<glyph name="five" format="1">
  <advance width="806"/>
  <unicode hex="0035"/>
  <outline>
    <contour>
      <point x="193" y="-38" type="curve" smooth="yes"/>
      <point x="301" y="-38"/>
      <point x="400" y="-22"/>
      <point x="480" y="6" type="curve" smooth="yes"/>
      <point x="592" y="44"/>
      <point x="665" y="113"/>
      <point x="665" y="180" type="curve" smooth="yes"/>
      <point x="665" y="271"/>
      <point x="605" y="323"/>
      <point x="448" y="350" type="curve" smooth="yes"/>
      <point x="386" y="366"/>
      <point x="295" y="380"/>
      <point x="200" y="388" type="curve" smooth="yes"/>
      <point x="186" y="391"/>
      <point x="184" y="398"/>
      <point x="185" y="406" type="curve"/>
      <point x="186" y="421"/>
      <point x="201" y="448"/>
      <point x="219" y="450" type="curve" smooth="yes"/>
      <point x="273" y="456"/>
      <point x="462" y="462"/>
      <point x="557" y="468" type="curve" smooth="yes"/>
      <point x="579" y="470"/>
      <point x="592" y="484"/>
      <point x="605" y="512" type="curve" smooth="yes"/>
      <point x="611" y="526"/>
      <point x="619" y="543"/>
      <point x="626" y="557" type="curve" smooth="yes"/>
      <point x="633" y="570"/>
      <point x="625" y="583"/>
      <point x="612" y="582" type="curve" smooth="yes"/>
      <point x="485" y="573"/>
      <point x="380" y="569"/>
      <point x="267" y="549" type="curve" smooth="yes"/>
      <point x="240" y="544"/>
      <point x="223" y="534"/>
      <point x="215" y="515" type="curve" smooth="yes"/>
      <point x="199" y="476"/>
      <point x="159" y="399"/>
      <point x="159" y="320" type="curve" smooth="yes"/>
      <point x="159" y="305"/>
      <point x="166" y="289"/>
      <point x="183" y="278" type="curve"/>
      <point x="359" y="250"/>
      <point x="425" y="202"/>
      <point x="425" y="138" type="curve" smooth="yes"/>
      <point x="425" y="57"/>
      <point x="379" y="-10"/>
      <point x="192" y="-25" type="curve" smooth="yes"/>
      <point x="177" y="-26"/>
      <point x="156" y="-29"/>
      <point x="156" y="-33" type="curve" smooth="yes"/>
      <point x="156" y="-36"/>
      <point x="178" y="-38"/>
    </contour>
  </outline>
</glyph>
<glyph name="six" format="1">
  <advance width="806"/>
  <unicode hex="0036"/>
  <outline>
    <contour>
      <point x="407" y="-16" type="curve" smooth="yes"/>
      <point x="579" y="-16"/>
      <point x="770" y="59"/>
      <point x="770" y="176" type="curve" smooth="yes"/>
      <point x="770" y="260"/>
      <point x="673" y="321"/>
      <point x="564" y="321" type="curve" smooth="yes"/>
      <point x="515" y="321"/>
      <point x="445" y="305"/>
      <point x="395" y="274" type="curve" smooth="yes"/>
      <point x="380" y="266"/>
      <point x="368" y="258"/>
      <point x="357" y="248" type="curve" smooth="yes"/>
      <point x="348" y="240"/>
      <point x="351" y="229"/>
      <point x="366" y="237" type="curve" smooth="yes"/>
      <point x="387" y="249"/>
      <point x="419" y="261"/>
      <point x="443" y="261" type="curve" smooth="yes"/>
      <point x="496" y="261"/>
      <point x="534" y="202"/>
      <point x="534" y="129" type="curve" smooth="yes"/>
      <point x="534" y="40"/>
      <point x="484" y="-2"/>
      <point x="422" y="-1" type="curve" smooth="yes"/>
      <point x="364" y="0"/>
      <point x="290" y="58"/>
      <point x="288" y="165" type="curve" smooth="yes"/>
      <point x="285" y="279"/>
      <point x="335" y="398"/>
      <point x="412" y="476" type="curve" smooth="yes"/>
      <point x="456" y="523"/>
      <point x="518" y="553"/>
      <point x="585" y="581" type="curve" smooth="yes"/>
      <point x="592" y="584"/>
      <point x="603" y="586"/>
      <point x="608" y="593" type="curve" smooth="yes"/>
      <point x="609" y="595"/>
      <point x="602" y="600"/>
      <point x="590" y="597" type="curve" smooth="yes"/>
      <point x="494" y="578"/>
      <point x="414" y="558"/>
      <point x="335" y="523" type="curve" smooth="yes"/>
      <point x="152" y="429"/>
      <point x="43" y="307"/>
      <point x="43" y="178" type="curve" smooth="yes"/>
      <point x="43" y="48"/>
      <point x="224" y="-16"/>
    </contour>
  </outline>
</glyph>
<glyph name="seven" format="1">
  <advance width="806"/>
  <unicode hex="0037"/>
  <outline>
    <contour>
      <point x="303" y="-32" type="curve" smooth="yes"/>
      <point x="307" y="-32"/>
      <point x="314" y="-17"/>
      <point x="322" y="-7" type="curve" smooth="yes"/>
      <point x="722" y="495" type="line" smooth="yes"/>
      <point x="734" y="510"/>
      <point x="760" y="547"/>
      <point x="760" y="562" type="curve" smooth="yes"/>
      <point x="760" y="567"/>
      <point x="757" y="574"/>
      <point x="754" y="574" type="curve" smooth="yes"/>
      <point x="732" y="573"/>
      <point x="551" y="569"/>
      <point x="352" y="569" type="curve" smooth="yes"/>
      <point x="299" y="569"/>
      <point x="274" y="570"/>
      <point x="240" y="570" type="curve" smooth="yes"/>
      <point x="192" y="570"/>
      <point x="148" y="579"/>
      <point x="144" y="579" type="curve" smooth="yes"/>
      <point x="139" y="579"/>
      <point x="128" y="574"/>
      <point x="127" y="558" type="curve" smooth="yes"/>
      <point x="123" y="510"/>
      <point x="110" y="429"/>
      <point x="97" y="374" type="curve"/>
      <point x="95" y="365"/>
      <point x="91" y="347"/>
      <point x="91" y="333" type="curve" smooth="yes"/>
      <point x="91" y="322"/>
      <point x="93" y="306"/>
      <point x="101" y="306" type="curve" smooth="yes"/>
      <point x="103" y="306"/>
      <point x="104" y="317"/>
      <point x="108" y="330" type="curve" smooth="yes"/>
      <point x="118" y="365"/>
      <point x="139" y="374"/>
      <point x="162" y="374" type="curve" smooth="yes"/>
      <point x="597" y="374" type="line"/>
      <point x="594" y="405" type="line"/>
      <point x="323" y="30" type="line" smooth="yes"/>
      <point x="312" y="16"/>
      <point x="291" y="-19"/>
      <point x="291" y="-23" type="curve" smooth="yes"/>
      <point x="291" y="-28"/>
      <point x="295" y="-32"/>
    </contour>
  </outline>
</glyph>
<glyph name="eight" format="1">
  <advance width="806"/>
  <unicode hex="0038"/>
  <outline>
    <contour>
      <point x="385" y="-14" type="curve" smooth="yes"/>
      <point x="545" y="-14"/>
      <point x="706" y="55"/>
      <point x="706" y="152" type="curve" smooth="yes"/>
      <point x="706" y="224"/>
      <point x="621" y="287"/>
      <point x="542" y="334" type="curve" smooth="yes"/>
      <point x="531" y="341"/>
      <point x="529" y="348"/>
      <point x="547" y="354" type="curve" smooth="yes"/>
      <point x="567" y="361"/>
      <point x="588" y="365"/>
      <point x="607" y="376" type="curve" smooth="yes"/>
      <point x="642" y="394"/>
      <point x="676" y="421"/>
      <point x="676" y="458" type="curve" smooth="yes"/>
      <point x="676" y="533"/>
      <point x="548" y="582"/>
      <point x="417" y="582" type="curve" smooth="yes"/>
      <point x="274" y="582"/>
      <point x="125" y="524"/>
      <point x="125" y="449" type="curve" smooth="yes"/>
      <point x="125" y="373"/>
      <point x="213" y="311"/>
      <point x="274" y="263" type="curve" smooth="yes"/>
      <point x="283" y="256"/>
      <point x="287" y="253"/>
      <point x="277" y="251" type="curve" smooth="yes"/>
      <point x="210" y="236"/>
      <point x="101" y="211"/>
      <point x="101" y="130" type="curve" smooth="yes"/>
      <point x="101" y="44"/>
      <point x="237" y="-14"/>
    </contour>
    <contour>
      <point x="399" y="0" type="curve" smooth="yes"/>
      <point x="325" y="0"/>
      <point x="261" y="99"/>
      <point x="261" y="155" type="curve" smooth="yes"/>
      <point x="261" y="191"/>
      <point x="267" y="213"/>
      <point x="295" y="233" type="curve" smooth="yes"/>
      <point x="299" y="235"/>
      <point x="303" y="237"/>
      <point x="305" y="237" type="curve" smooth="yes"/>
      <point x="310" y="237"/>
      <point x="316" y="234"/>
      <point x="323" y="229" type="curve"/>
      <point x="373" y="202"/>
      <point x="488" y="118"/>
      <point x="488" y="76" type="curve" smooth="yes"/>
      <point x="488" y="35"/>
      <point x="450" y="0"/>
    </contour>
    <contour>
      <point x="514" y="353" type="curve"/>
      <point x="509" y="350"/>
      <point x="503" y="352"/>
      <point x="499" y="355" type="curve"/>
      <point x="442" y="391"/>
      <point x="316" y="452"/>
      <point x="316" y="504" type="curve" smooth="yes"/>
      <point x="316" y="540"/>
      <point x="361" y="569"/>
      <point x="399" y="569" type="curve" smooth="yes"/>
      <point x="455" y="569"/>
      <point x="545" y="487"/>
      <point x="546" y="439" type="curve" smooth="yes"/>
      <point x="546" y="405"/>
      <point x="541" y="374"/>
    </contour>
  </outline>
</glyph>
<glyph name="question" format="1">
  <advance width="436"/>
  <unicode hex="003F"/>
  <outline>
    <contour>
      <point x="153" y="161" type="curve" smooth="yes"/>
      <point x="157" y="161"/>
      <point x="163" y="175"/>
      <point x="165" y="183" type="curve" smooth="yes"/>
      <point x="171" y="211"/>
      <point x="177" y="233"/>
      <point x="205" y="249" type="curve" smooth="yes"/>
      <point x="237" y="267"/>
      <point x="261" y="276"/>
      <point x="305" y="296" type="curve" smooth="yes"/>
      <point x="337" y="309"/>
      <point x="367" y="336"/>
      <point x="367" y="392" type="curve" smooth="yes"/>
      <point x="367" y="448"/>
      <point x="323" y="543"/>
      <point x="256" y="606" type="curve" smooth="yes"/>
      <point x="217" y="642"/>
      <point x="172" y="661"/>
      <point x="132" y="661" type="curve" smooth="yes"/>
      <point x="115" y="661"/>
      <point x="92" y="644"/>
      <point x="92" y="625" type="curve" smooth="yes"/>
      <point x="92" y="598"/>
      <point x="113" y="569"/>
      <point x="134" y="569" type="curve" smooth="yes"/>
      <point x="144" y="569"/>
      <point x="151" y="570"/>
      <point x="158" y="571" type="curve" smooth="yes"/>
      <point x="165" y="572"/>
      <point x="172" y="573"/>
      <point x="181" y="573" type="curve" smooth="yes"/>
      <point x="272" y="572"/>
      <point x="311" y="533"/>
      <point x="311" y="488" type="curve" smooth="yes"/>
      <point x="311" y="466"/>
      <point x="269" y="447"/>
      <point x="231" y="435" type="curve" smooth="yes"/>
      <point x="138" y="398"/>
      <point x="101" y="362"/>
      <point x="101" y="321" type="curve" smooth="yes"/>
      <point x="101" y="267"/>
      <point x="125" y="224"/>
      <point x="132" y="199" type="curve" smooth="yes"/>
      <point x="137" y="179"/>
      <point x="144" y="161"/>
    </contour>
    <contour>
      <point x="177" y="-14" type="curve" smooth="yes"/>
      <point x="238" y="-14"/>
      <point x="273" y="7"/>
      <point x="273" y="42" type="curve" smooth="yes"/>
      <point x="273" y="77"/>
      <point x="238" y="98"/>
      <point x="177" y="98" type="curve" smooth="yes"/>
      <point x="118" y="98"/>
      <point x="82" y="77"/>
      <point x="82" y="42" type="curve" smooth="yes"/>
      <point x="82" y="7"/>
      <point x="118" y="-14"/>
    </contour>
  </outline>
</glyph>
<glyph name="at" format="1">
  <advance width="970"/>
  <unicode hex="0040"/>
  <outline>
    <contour>
      <point x="495" y="-148" type="curve" smooth="yes"/>
      <point x="640" y="-148"/>
      <point x="830" y="-47"/>
      <point x="830" y="-20" type="curve" smooth="yes"/>
      <point x="830" y="-15"/>
      <point x="827" y="-13"/>
      <point x="820" y="-13" type="curve" smooth="yes"/>
      <point x="816" y="-13"/>
      <point x="811" y="-17"/>
      <point x="804" y="-21" type="curve" smooth="yes"/>
      <point x="718" y="-88"/>
      <point x="593" y="-131"/>
      <point x="504" y="-131" type="curve" smooth="yes"/>
      <point x="293" y="-131"/>
      <point x="77" y="-16"/>
      <point x="77" y="208" type="curve" smooth="yes"/>
      <point x="77" y="427"/>
      <point x="284" y="551"/>
      <point x="513" y="551" type="curve" smooth="yes"/>
      <point x="738" y="551"/>
      <point x="886" y="418"/>
      <point x="886" y="262" type="curve" smooth="yes"/>
      <point x="886" y="155"/>
      <point x="823" y="81"/>
      <point x="738" y="81" type="curve" smooth="yes"/>
      <point x="724" y="81"/>
      <point x="720" y="96"/>
      <point x="720" y="113" type="curve" smooth="yes"/>
      <point x="720" y="123"/>
      <point x="722" y="134"/>
      <point x="723" y="144" type="curve"/>
      <point x="745" y="305" type="line" smooth="yes"/>
      <point x="747" y="323"/>
      <point x="758" y="368"/>
      <point x="767" y="395" type="curve"/>
      <point x="777" y="399"/>
      <point x="726" y="401"/>
      <point x="712" y="401" type="curve" smooth="yes"/>
      <point x="682" y="401"/>
      <point x="665" y="380"/>
      <point x="618" y="380" type="curve" smooth="yes"/>
      <point x="613" y="380"/>
      <point x="604" y="384"/>
      <point x="584" y="389" type="curve" smooth="yes"/>
      <point x="568" y="394"/>
      <point x="524" y="398"/>
      <point x="497" y="398" type="curve" smooth="yes"/>
      <point x="349" y="398"/>
      <point x="214" y="311"/>
      <point x="214" y="175" type="curve" smooth="yes"/>
      <point x="214" y="96"/>
      <point x="288" y="52"/>
      <point x="383" y="52" type="curve" smooth="yes"/>
      <point x="481" y="52"/>
      <point x="536" y="94"/>
      <point x="550" y="94" type="curve" smooth="yes"/>
      <point x="580" y="94"/>
      <point x="589" y="52"/>
      <point x="713" y="52" type="curve" smooth="yes"/>
      <point x="820" y="52"/>
      <point x="906" y="132"/>
      <point x="906" y="268" type="curve" smooth="yes"/>
      <point x="906" y="431"/>
      <point x="738" y="569"/>
      <point x="538" y="569" type="curve" smooth="yes"/>
      <point x="282" y="569"/>
      <point x="58" y="443"/>
      <point x="58" y="203" type="curve" smooth="yes"/>
      <point x="58" y="-4"/>
      <point x="257" y="-148"/>
    </contour>
    <contour>
      <point x="470" y="72" type="curve" smooth="yes"/>
      <point x="432" y="72"/>
      <point x="387" y="99"/>
      <point x="387" y="192" type="curve" smooth="yes"/>
      <point x="387" y="318"/>
      <point x="448" y="384"/>
      <point x="505" y="384" type="curve" smooth="yes"/>
      <point x="549" y="384"/>
      <point x="576" y="360"/>
      <point x="576" y="312" type="curve" smooth="yes"/>
      <point x="576" y="307"/>
      <point x="576" y="302"/>
      <point x="575" y="297" type="curve"/>
      <point x="557" y="162" type="line" smooth="yes"/>
      <point x="551" y="123"/>
      <point x="542" y="111"/>
      <point x="530" y="99" type="curve" smooth="yes"/>
      <point x="510" y="82"/>
      <point x="494" y="72"/>
    </contour>
  </outline>
</glyph>
<glyph name="A" format="1">
  <advance width="863"/>
  <unicode hex="0041"/>
  <outline>
    <contour>
      <point x="19" y="-5" type="curve" smooth="yes"/>
      <point x="44" y="-5"/>
      <point x="103" y="-3"/>
      <point x="147" y="-3" type="curve" smooth="yes"/>
      <point x="135" y="-3"/>
      <point x="173" y="-3"/>
      <point x="187" y="-3" type="curve" smooth="yes"/>
      <point x="199" y="-3"/>
      <point x="208" y="-2"/>
      <point x="208" y="1" type="curve" smooth="yes"/>
      <point x="208" y="5"/>
      <point x="197" y="8"/>
      <point x="182" y="10" type="curve" smooth="yes"/>
      <point x="148" y="14"/>
      <point x="128" y="25"/>
      <point x="128" y="48" type="curve" smooth="yes"/>
      <point x="128" y="80"/>
      <point x="184" y="201"/>
      <point x="192" y="224" type="curve" smooth="yes"/>
      <point x="197" y="237"/>
      <point x="203" y="241"/>
      <point x="209" y="241" type="curve" smooth="yes"/>
      <point x="419" y="241" type="line" smooth="yes"/>
      <point x="437" y="241"/>
      <point x="442" y="240"/>
      <point x="445" y="231" type="curve" smooth="yes"/>
      <point x="460" y="186"/>
      <point x="491" y="83"/>
      <point x="491" y="57" type="curve" smooth="yes"/>
      <point x="491" y="35"/>
      <point x="474" y="17"/>
      <point x="432" y="12" type="curve" smooth="yes"/>
      <point x="412" y="10"/>
      <point x="395" y="7"/>
      <point x="395" y="3" type="curve" smooth="yes"/>
      <point x="395" y="-1"/>
      <point x="414" y="-2"/>
      <point x="440" y="-2" type="curve" smooth="yes"/>
      <point x="478" y="-2"/>
      <point x="544" y="-2"/>
      <point x="605" y="-2" type="curve" smooth="yes"/>
      <point x="675" y="-2"/>
      <point x="778" y="-5"/>
      <point x="822" y="-5" type="curve" smooth="yes"/>
      <point x="849" y="-5"/>
      <point x="868" y="-4"/>
      <point x="868" y="0" type="curve" smooth="yes"/>
      <point x="868" y="4"/>
      <point x="857" y="8"/>
      <point x="840" y="10" type="curve" smooth="yes"/>
      <point x="798" y="15"/>
      <point x="765" y="30"/>
      <point x="735" y="110" type="curve" smooth="yes"/>
      <point x="702" y="199"/>
      <point x="621" y="426"/>
      <point x="563" y="593" type="curve" smooth="yes"/>
      <point x="553" y="622"/>
      <point x="541" y="629"/>
      <point x="531" y="634" type="curve"/>
      <point x="527" y="636"/>
      <point x="517" y="637"/>
      <point x="513" y="635" type="curve"/>
      <point x="499" y="630"/>
      <point x="488" y="611"/>
      <point x="446" y="604" type="curve" smooth="yes"/>
      <point x="403" y="596"/>
      <point x="361" y="593"/>
      <point x="318" y="590" type="curve"/>
      <point x="316" y="570"/>
      <point x="311" y="554"/>
      <point x="304" y="536" type="curve" smooth="yes"/>
      <point x="236" y="364"/>
      <point x="187" y="242"/>
      <point x="117" y="91" type="curve" smooth="yes"/>
      <point x="86" y="22"/>
      <point x="59" y="13"/>
      <point x="29" y="10" type="curve" smooth="yes"/>
      <point x="8" y="8"/>
      <point x="-2" y="4"/>
      <point x="-2" y="0" type="curve" smooth="yes"/>
      <point x="-2" y="-3"/>
      <point x="7" y="-5"/>
    </contour>
    <contour>
      <point x="231" y="255" type="line" smooth="yes"/>
      <point x="218" y="255"/>
      <point x="210" y="255"/>
      <point x="210" y="261" type="curve" smooth="yes"/>
      <point x="210" y="263"/>
      <point x="211" y="266"/>
      <point x="212" y="269" type="curve"/>
      <point x="321" y="538" type="line" smooth="yes"/>
      <point x="325" y="548"/>
      <point x="327" y="554"/>
      <point x="329" y="554" type="curve" smooth="yes"/>
      <point x="332" y="554"/>
      <point x="334" y="548"/>
      <point x="338" y="537" type="curve" smooth="yes"/>
      <point x="428" y="269" type="line"/>
      <point x="429" y="265"/>
      <point x="430" y="261"/>
      <point x="430" y="259" type="curve" smooth="yes"/>
      <point x="430" y="255"/>
      <point x="426" y="255"/>
      <point x="416" y="255" type="curve" smooth="yes"/>
    </contour>
  </outline>
</glyph>
<glyph name="B" format="1">
  <advance width="904"/>
  <unicode hex="0042"/>
  <outline>
    <contour>
      <point x="49" y="-5" type="curve" smooth="yes"/>
      <point x="158" y="-5"/>
      <point x="196" y="0"/>
      <point x="293" y="0" type="curve" smooth="yes"/>
      <point x="368" y="0"/>
      <point x="438" y="-4"/>
      <point x="472" y="-4" type="curve" smooth="yes"/>
      <point x="580" y="-4"/>
      <point x="655" y="8"/>
      <point x="715" y="27" type="curve" smooth="yes"/>
      <point x="774" y="47"/>
      <point x="864" y="77"/>
      <point x="864" y="179" type="curve" smooth="yes"/>
      <point x="864" y="286"/>
      <point x="742" y="322"/>
      <point x="622" y="329" type="curve" smooth="yes"/>
      <point x="614" y="329"/>
      <point x="615" y="334"/>
      <point x="622" y="335" type="curve" smooth="yes"/>
      <point x="672" y="340"/>
      <point x="710" y="350"/>
      <point x="747" y="370" type="curve" smooth="yes"/>
      <point x="778" y="390"/>
      <point x="805" y="422"/>
      <point x="805" y="468" type="curve" smooth="yes"/>
      <point x="805" y="569"/>
      <point x="697" y="606"/>
      <point x="473" y="606" type="curve" smooth="yes"/>
      <point x="361" y="606"/>
      <point x="332" y="601"/>
      <point x="259" y="601" type="curve" smooth="yes"/>
      <point x="180" y="601"/>
      <point x="163" y="602"/>
      <point x="59" y="602" type="curve" smooth="yes"/>
      <point x="42" y="602"/>
      <point x="30" y="601"/>
      <point x="30" y="598" type="curve" smooth="yes"/>
      <point x="30" y="594"/>
      <point x="40" y="591"/>
      <point x="63" y="590" type="curve" smooth="yes"/>
      <point x="115" y="589"/>
      <point x="130" y="579"/>
      <point x="130" y="540" type="curve" smooth="yes"/>
      <point x="130" y="70" type="line" smooth="yes"/>
      <point x="130" y="23"/>
      <point x="109" y="12"/>
      <point x="52" y="8" type="curve" smooth="yes"/>
      <point x="29" y="7"/>
      <point x="19" y="4"/>
      <point x="19" y="0" type="curve" smooth="yes"/>
      <point x="19" y="-4"/>
      <point x="31" y="-5"/>
    </contour>
    <contour>
      <point x="448" y="9" type="curve" smooth="yes"/>
      <point x="397" y="9"/>
      <point x="369" y="27"/>
      <point x="369" y="86" type="curve" smooth="yes"/>
      <point x="369" y="283" type="line" smooth="yes"/>
      <point x="369" y="299"/>
      <point x="383" y="324"/>
      <point x="426" y="324" type="curve" smooth="yes"/>
      <point x="485" y="324"/>
      <point x="528" y="315"/>
      <point x="555" y="295" type="curve" smooth="yes"/>
      <point x="590" y="272"/>
      <point x="614" y="232"/>
      <point x="614" y="166" type="curve" smooth="yes"/>
      <point x="614" y="77"/>
      <point x="536" y="9"/>
    </contour>
    <contour>
      <point x="415" y="336" type="curve" smooth="yes"/>
      <point x="398" y="336"/>
      <point x="369" y="339"/>
      <point x="369" y="374" type="curve" smooth="yes"/>
      <point x="369" y="543" type="line" smooth="yes"/>
      <point x="369" y="577"/>
      <point x="380" y="593"/>
      <point x="435" y="593" type="curve" smooth="yes"/>
      <point x="558" y="593"/>
      <point x="581" y="517"/>
      <point x="581" y="460" type="curve" smooth="yes"/>
      <point x="581" y="404"/>
      <point x="564" y="374"/>
      <point x="541" y="358" type="curve" smooth="yes"/>
      <point x="511" y="339"/>
      <point x="468" y="336"/>
    </contour>
  </outline>
</glyph>
<glyph name="C" format="1">
  <advance width="866"/>
  <unicode hex="0043"/>
  <outline>
    <contour>
      <point x="563" y="-15" type="curve" smooth="yes"/>
      <point x="628" y="-15"/>
      <point x="703" y="-6"/>
      <point x="752" y="14" type="curve" smooth="yes"/>
      <point x="773" y="21"/>
      <point x="774" y="22"/>
      <point x="784" y="41" type="curve" smooth="yes"/>
      <point x="796" y="70"/>
      <point x="811" y="122"/>
      <point x="811" y="138" type="curve" smooth="yes"/>
      <point x="811" y="159"/>
      <point x="789" y="159"/>
      <point x="781" y="141" type="curve" smooth="yes"/>
      <point x="733" y="41"/>
      <point x="680" y="1"/>
      <point x="578" y="1" type="curve" smooth="yes"/>
      <point x="410" y="1"/>
      <point x="303" y="162"/>
      <point x="303" y="321" type="curve" smooth="yes"/>
      <point x="303" y="464"/>
      <point x="411" y="598"/>
      <point x="571" y="598" type="curve" smooth="yes"/>
      <point x="644" y="598"/>
      <point x="686" y="577"/>
      <point x="716" y="551" type="curve" smooth="yes"/>
      <point x="748" y="523"/>
      <point x="760" y="488"/>
      <point x="773" y="437" type="curve" smooth="yes"/>
      <point x="779" y="414"/>
      <point x="805" y="423"/>
      <point x="804" y="438" type="curve" smooth="yes"/>
      <point x="802" y="490"/>
      <point x="798" y="522"/>
      <point x="795" y="553" type="curve" smooth="yes"/>
      <point x="793" y="571"/>
      <point x="786" y="582"/>
      <point x="766" y="587" type="curve" smooth="yes"/>
      <point x="698" y="604"/>
      <point x="665" y="613"/>
      <point x="588" y="613" type="curve" smooth="yes"/>
      <point x="290" y="613"/>
      <point x="46" y="496"/>
      <point x="46" y="298" type="curve" smooth="yes"/>
      <point x="46" y="98"/>
      <point x="284" y="-15"/>
    </contour>
  </outline>
</glyph>
<glyph name="E" format="1">
  <advance width="724"/>
  <unicode hex="0045"/>
  <outline>
    <contour>
      <point x="76" y="-5" type="curve" smooth="yes"/>
      <point x="149" y="-5"/>
      <point x="171" y="1"/>
      <point x="232" y="1" type="curve" smooth="yes"/>
      <point x="366" y="1"/>
      <point x="481" y="-5"/>
      <point x="654" y="-5" type="curve" smooth="yes"/>
      <point x="662" y="-5"/>
      <point x="664" y="3"/>
      <point x="668" y="12" type="curve" smooth="yes"/>
      <point x="680" y="39"/>
      <point x="699" y="110"/>
      <point x="699" y="128" type="curve" smooth="yes"/>
      <point x="699" y="136"/>
      <point x="697" y="141"/>
      <point x="690" y="142" type="curve" smooth="yes"/>
      <point x="683" y="143"/>
      <point x="678" y="135"/>
      <point x="674" y="126" type="curve" smooth="yes"/>
      <point x="654" y="78"/>
      <point x="638" y="51"/>
      <point x="618" y="34" type="curve" smooth="yes"/>
      <point x="597" y="18"/>
      <point x="571" y="14"/>
      <point x="529" y="14" type="curve" smooth="yes"/>
      <point x="450" y="14" type="line" smooth="yes"/>
      <point x="405" y="14"/>
      <point x="384" y="30"/>
      <point x="384" y="81" type="curve" smooth="yes"/>
      <point x="384" y="276" type="line" smooth="yes"/>
      <point x="384" y="299"/>
      <point x="395" y="302"/>
      <point x="418" y="302" type="curve" smooth="yes"/>
      <point x="519" y="302" type="line" smooth="yes"/>
      <point x="544" y="302"/>
      <point x="557" y="279"/>
      <point x="564" y="248" type="curve" smooth="yes"/>
      <point x="569" y="227"/>
      <point x="573" y="216"/>
      <point x="582" y="216" type="curve" smooth="yes"/>
      <point x="590" y="216"/>
      <point x="589" y="224"/>
      <point x="589" y="233" type="curve" smooth="yes"/>
      <point x="589" y="241"/>
      <point x="587" y="290"/>
      <point x="587" y="310" type="curve" smooth="yes"/>
      <point x="587" y="326"/>
      <point x="590" y="371"/>
      <point x="590" y="380" type="curve" smooth="yes"/>
      <point x="590" y="390"/>
      <point x="584" y="396"/>
      <point x="579" y="396" type="curve" smooth="yes"/>
      <point x="572" y="396"/>
      <point x="570" y="389"/>
      <point x="566" y="374" type="curve" smooth="yes"/>
      <point x="556" y="337"/>
      <point x="546" y="316"/>
      <point x="510" y="316" type="curve" smooth="yes"/>
      <point x="402" y="316" type="line" smooth="yes"/>
      <point x="392" y="316"/>
      <point x="384" y="326"/>
      <point x="384" y="338" type="curve" smooth="yes"/>
      <point x="384" y="562" type="line" smooth="yes"/>
      <point x="384" y="578"/>
      <point x="399" y="586"/>
      <point x="422" y="586" type="curve" smooth="yes"/>
      <point x="565" y="586" type="line" smooth="yes"/>
      <point x="586" y="586"/>
      <point x="601" y="579"/>
      <point x="616" y="550" type="curve" smooth="yes"/>
      <point x="623" y="538"/>
      <point x="634" y="513"/>
      <point x="643" y="489" type="curve" smooth="yes"/>
      <point x="647" y="478"/>
      <point x="650" y="476"/>
      <point x="656" y="476" type="curve" smooth="yes"/>
      <point x="662" y="476"/>
      <point x="665" y="479"/>
      <point x="665" y="491" type="curve" smooth="yes"/>
      <point x="665" y="518"/>
      <point x="657" y="556"/>
      <point x="651" y="589" type="curve"/>
      <point x="649" y="599"/>
      <point x="637" y="603"/>
      <point x="626" y="603" type="curve" smooth="yes"/>
      <point x="619" y="603"/>
      <point x="571" y="602"/>
      <point x="510" y="601" type="curve" smooth="yes"/>
      <point x="453" y="601"/>
      <point x="384" y="600"/>
      <point x="324" y="600" type="curve" smooth="yes"/>
      <point x="229" y="600"/>
      <point x="185" y="603"/>
      <point x="83" y="603" type="curve" smooth="yes"/>
      <point x="60" y="603"/>
      <point x="44" y="602"/>
      <point x="44" y="597" type="curve" smooth="yes"/>
      <point x="44" y="592"/>
      <point x="54" y="589"/>
      <point x="77" y="587" type="curve" smooth="yes"/>
      <point x="127" y="582"/>
      <point x="144" y="573"/>
      <point x="144" y="548" type="curve" smooth="yes"/>
      <point x="144" y="72" type="line" smooth="yes"/>
      <point x="144" y="28"/>
      <point x="128" y="17"/>
      <point x="70" y="11" type="curve" smooth="yes"/>
      <point x="47" y="9"/>
      <point x="37" y="6"/>
      <point x="37" y="1" type="curve" smooth="yes"/>
      <point x="37" y="-4"/>
      <point x="53" y="-5"/>
    </contour>
  </outline>
</glyph>
<glyph name="F" format="1">
  <advance width="679"/>
  <unicode hex="0046"/>
  <outline>
    <contour>
      <point x="83" y="-5" type="curve" smooth="yes"/>
      <point x="167" y="-5"/>
      <point x="203" y="-1"/>
      <point x="280" y="2" type="curve" smooth="yes"/>
      <point x="340" y="-1"/>
      <point x="349" y="-5"/>
      <point x="434" y="-5" type="curve" smooth="yes"/>
      <point x="461" y="-5"/>
      <point x="479" y="-4"/>
      <point x="479" y="1" type="curve" smooth="yes"/>
      <point x="479" y="7"/>
      <point x="469" y="9"/>
      <point x="446" y="12" type="curve" smooth="yes"/>
      <point x="396" y="17"/>
      <point x="382" y="31"/>
      <point x="381" y="63" type="curve" smooth="yes"/>
      <point x="377" y="156"/>
      <point x="377" y="220"/>
      <point x="377" y="270" type="curve" smooth="yes"/>
      <point x="377" y="287"/>
      <point x="388" y="294"/>
      <point x="401" y="295" type="curve" smooth="yes"/>
      <point x="422" y="297"/>
      <point x="443" y="297"/>
      <point x="466" y="297" type="curve" smooth="yes"/>
      <point x="482" y="297"/>
      <point x="510" y="296"/>
      <point x="525" y="296" type="curve" smooth="yes"/>
      <point x="545" y="296"/>
      <point x="556" y="287"/>
      <point x="567" y="250" type="curve" smooth="yes"/>
      <point x="571" y="236"/>
      <point x="578" y="224"/>
      <point x="587" y="224" type="curve" smooth="yes"/>
      <point x="594" y="224"/>
      <point x="595" y="232"/>
      <point x="595" y="241" type="curve"/>
      <point x="593" y="270"/>
      <point x="592" y="289"/>
      <point x="592" y="309" type="curve" smooth="yes"/>
      <point x="592" y="325"/>
      <point x="593" y="341"/>
      <point x="595" y="364" type="curve" smooth="yes"/>
      <point x="596" y="373"/>
      <point x="591" y="380"/>
      <point x="585" y="380" type="curve" smooth="yes"/>
      <point x="578" y="380"/>
      <point x="569" y="367"/>
      <point x="567" y="360" type="curve" smooth="yes"/>
      <point x="558" y="330"/>
      <point x="544" y="313"/>
      <point x="513" y="313" type="curve" smooth="yes"/>
      <point x="479" y="313"/>
      <point x="429" y="310"/>
      <point x="387" y="310" type="curve" smooth="yes"/>
      <point x="378" y="310"/>
      <point x="377" y="321"/>
      <point x="377" y="332" type="curve"/>
      <point x="376" y="356"/>
      <point x="376" y="383"/>
      <point x="376" y="417" type="curve" smooth="yes"/>
      <point x="376" y="452"/>
      <point x="376" y="511"/>
      <point x="377" y="536" type="curve" smooth="yes"/>
      <point x="378" y="562"/>
      <point x="380" y="586"/>
      <point x="411" y="586" type="curve" smooth="yes"/>
      <point x="544" y="586" type="line" smooth="yes"/>
      <point x="574" y="586"/>
      <point x="593" y="577"/>
      <point x="608" y="553" type="curve" smooth="yes"/>
      <point x="615" y="541"/>
      <point x="624" y="521"/>
      <point x="631" y="493" type="curve" smooth="yes"/>
      <point x="633" y="485"/>
      <point x="638" y="479"/>
      <point x="645" y="479" type="curve" smooth="yes"/>
      <point x="650" y="479"/>
      <point x="652" y="488"/>
      <point x="652" y="500" type="curve" smooth="yes"/>
      <point x="652" y="514"/>
      <point x="650" y="578"/>
      <point x="647" y="601" type="curve" smooth="yes"/>
      <point x="646" y="608"/>
      <point x="632" y="610"/>
      <point x="623" y="610" type="curve" smooth="yes"/>
      <point x="590" y="610"/>
      <point x="547" y="600"/>
      <point x="488" y="600" type="curve"/>
      <point x="432" y="600"/>
      <point x="370" y="600"/>
      <point x="316" y="600" type="curve" smooth="yes"/>
      <point x="223" y="600"/>
      <point x="182" y="603"/>
      <point x="82" y="603" type="curve" smooth="yes"/>
      <point x="59" y="603"/>
      <point x="43" y="602"/>
      <point x="43" y="597" type="curve" smooth="yes"/>
      <point x="43" y="592"/>
      <point x="53" y="589"/>
      <point x="76" y="587" type="curve" smooth="yes"/>
      <point x="126" y="582"/>
      <point x="137" y="567"/>
      <point x="137" y="527" type="curve" smooth="yes"/>
      <point x="137" y="62" type="line" smooth="yes"/>
      <point x="137" y="26"/>
      <point x="120" y="17"/>
      <point x="70" y="12" type="curve" smooth="yes"/>
      <point x="53" y="9"/>
      <point x="37" y="7"/>
      <point x="37" y="1" type="curve" smooth="yes"/>
      <point x="37" y="-4"/>
      <point x="56" y="-5"/>
    </contour>
  </outline>
</glyph>
<glyph name="H" format="1">
  <advance width="1132"/>
  <unicode hex="0048"/>
  <outline>
    <contour>
      <point x="66" y="-5" type="curve" smooth="yes"/>
      <point x="158" y="-5"/>
      <point x="180" y="-3"/>
      <point x="254" y="-3" type="curve" smooth="yes"/>
      <point x="333" y="-3"/>
      <point x="361" y="-5"/>
      <point x="453" y="-5" type="curve" smooth="yes"/>
      <point x="470" y="-5"/>
      <point x="482" y="-3"/>
      <point x="482" y="1" type="curve" smooth="yes"/>
      <point x="482" y="5"/>
      <point x="473" y="6"/>
      <point x="450" y="9" type="curve" smooth="yes"/>
      <point x="404" y="13"/>
      <point x="370" y="28"/>
      <point x="370" y="48" type="curve" smooth="yes"/>
      <point x="370" y="282" type="line" smooth="yes"/>
      <point x="370" y="290"/>
      <point x="370" y="293"/>
      <point x="375" y="293" type="curve" smooth="yes"/>
      <point x="757" y="293" type="line" smooth="yes"/>
      <point x="763" y="293"/>
      <point x="762" y="287"/>
      <point x="762" y="279" type="curve" smooth="yes"/>
      <point x="762" y="47" type="line" smooth="yes"/>
      <point x="762" y="24"/>
      <point x="739" y="13"/>
      <point x="693" y="9" type="curve" smooth="yes"/>
      <point x="670" y="6"/>
      <point x="661" y="5"/>
      <point x="661" y="1" type="curve" smooth="yes"/>
      <point x="661" y="-3"/>
      <point x="673" y="-5"/>
      <point x="690" y="-5" type="curve" smooth="yes"/>
      <point x="786" y="-5"/>
      <point x="805" y="-3"/>
      <point x="879" y="-3" type="curve" smooth="yes"/>
      <point x="952" y="-3"/>
      <point x="968" y="-5"/>
      <point x="1063" y="-5" type="curve" smooth="yes"/>
      <point x="1080" y="-5"/>
      <point x="1092" y="-3"/>
      <point x="1092" y="1" type="curve" smooth="yes"/>
      <point x="1092" y="5"/>
      <point x="1083" y="6"/>
      <point x="1060" y="9" type="curve" smooth="yes"/>
      <point x="1010" y="13"/>
      <point x="1002" y="22"/>
      <point x="1002" y="44" type="curve" smooth="yes"/>
      <point x="1002" y="551" type="line" smooth="yes"/>
      <point x="1002" y="573"/>
      <point x="1005" y="583"/>
      <point x="1055" y="587" type="curve" smooth="yes"/>
      <point x="1078" y="588"/>
      <point x="1088" y="591"/>
      <point x="1088" y="595" type="curve" smooth="yes"/>
      <point x="1088" y="599"/>
      <point x="1079" y="601"/>
      <point x="1059" y="601" type="curve" smooth="yes"/>
      <point x="963" y="601"/>
      <point x="961" y="600"/>
      <point x="898" y="600" type="curve" smooth="yes"/>
      <point x="818" y="600"/>
      <point x="788" y="601"/>
      <point x="692" y="601" type="curve" smooth="yes"/>
      <point x="673" y="601"/>
      <point x="663" y="599"/>
      <point x="663" y="595" type="curve" smooth="yes"/>
      <point x="663" y="591"/>
      <point x="673" y="588"/>
      <point x="696" y="587" type="curve" smooth="yes"/>
      <point x="746" y="583"/>
      <point x="762" y="570"/>
      <point x="762" y="551" type="curve" smooth="yes"/>
      <point x="762" y="318" type="line" smooth="yes"/>
      <point x="762" y="310"/>
      <point x="758" y="308"/>
      <point x="753" y="308" type="curve" smooth="yes"/>
      <point x="384" y="308" type="line" smooth="yes"/>
      <point x="378" y="308"/>
      <point x="370" y="309"/>
      <point x="370" y="317" type="curve" smooth="yes"/>
      <point x="370" y="552" type="line" smooth="yes"/>
      <point x="370" y="571"/>
      <point x="388" y="583"/>
      <point x="438" y="587" type="curve" smooth="yes"/>
      <point x="461" y="588"/>
      <point x="471" y="591"/>
      <point x="471" y="595" type="curve" smooth="yes"/>
      <point x="471" y="599"/>
      <point x="462" y="601"/>
      <point x="442" y="601" type="curve" smooth="yes"/>
      <point x="349" y="601"/>
      <point x="329" y="600"/>
      <point x="255" y="600" type="curve" smooth="yes"/>
      <point x="184" y="600"/>
      <point x="168" y="601"/>
      <point x="73" y="601" type="curve" smooth="yes"/>
      <point x="53" y="601"/>
      <point x="44" y="599"/>
      <point x="44" y="595" type="curve" smooth="yes"/>
      <point x="44" y="591"/>
      <point x="54" y="588"/>
      <point x="77" y="587" type="curve" smooth="yes"/>
      <point x="127" y="583"/>
      <point x="130" y="574"/>
      <point x="130" y="552" type="curve" smooth="yes"/>
      <point x="130" y="44" type="line" smooth="yes"/>
      <point x="130" y="21"/>
      <point x="119" y="13"/>
      <point x="69" y="9" type="curve" smooth="yes"/>
      <point x="46" y="6"/>
      <point x="37" y="5"/>
      <point x="37" y="1" type="curve" smooth="yes"/>
      <point x="37" y="-3"/>
      <point x="49" y="-5"/>
    </contour>
  </outline>
</glyph>
<glyph name="L" format="1">
  <advance width="754"/>
  <unicode hex="004C"/>
  <outline>
    <contour>
      <point x="74" y="-5" type="curve"/>
      <point x="74" y="-5"/>
      <point x="185" y="0"/>
      <point x="250" y="0" type="curve" smooth="yes"/>
      <point x="381" y="0"/>
      <point x="524" y="-5"/>
      <point x="699" y="-5" type="curve" smooth="yes"/>
      <point x="712" y="-5"/>
      <point x="716" y="3"/>
      <point x="717" y="12" type="curve" smooth="yes"/>
      <point x="721" y="54"/>
      <point x="730" y="87"/>
      <point x="744" y="139" type="curve"/>
      <point x="744" y="140"/>
      <point x="745" y="142"/>
      <point x="745" y="144" type="curve" smooth="yes"/>
      <point x="745" y="152"/>
      <point x="741" y="162"/>
      <point x="734" y="162" type="curve" smooth="yes"/>
      <point x="727" y="162"/>
      <point x="719" y="146"/>
      <point x="713" y="127" type="curve" smooth="yes"/>
      <point x="697" y="84"/>
      <point x="688" y="71"/>
      <point x="669" y="51" type="curve" smooth="yes"/>
      <point x="651" y="30"/>
      <point x="623" y="14"/>
      <point x="589" y="14" type="curve" smooth="yes"/>
      <point x="457" y="14" type="line" smooth="yes"/>
      <point x="391" y="14"/>
      <point x="380" y="34"/>
      <point x="380" y="75" type="curve" smooth="yes"/>
      <point x="380" y="552" type="line" smooth="yes"/>
      <point x="380" y="582"/>
      <point x="414" y="583"/>
      <point x="469" y="587" type="curve" smooth="yes"/>
      <point x="492" y="590"/>
      <point x="502" y="593"/>
      <point x="502" y="597" type="curve" smooth="yes"/>
      <point x="502" y="602"/>
      <point x="484" y="603"/>
      <point x="457" y="603" type="curve" smooth="yes"/>
      <point x="374" y="603"/>
      <point x="339" y="600"/>
      <point x="263" y="600" type="curve" smooth="yes"/>
      <point x="196" y="600"/>
      <point x="174" y="603"/>
      <point x="91" y="603" type="curve" smooth="yes"/>
      <point x="64" y="603"/>
      <point x="46" y="602"/>
      <point x="46" y="597" type="curve" smooth="yes"/>
      <point x="46" y="593"/>
      <point x="56" y="590"/>
      <point x="79" y="588" type="curve" smooth="yes"/>
      <point x="129" y="584"/>
      <point x="140" y="583"/>
      <point x="140" y="547" type="curve" smooth="yes"/>
      <point x="140" y="56" type="line" smooth="yes"/>
      <point x="140" y="25"/>
      <point x="126" y="16"/>
      <point x="59" y="10" type="curve"/>
      <point x="55" y="9"/>
      <point x="37" y="8"/>
      <point x="37" y="1" type="curve" smooth="yes"/>
      <point x="37" y="-2"/>
      <point x="50" y="-5"/>
    </contour>
  </outline>
</glyph>
<glyph name="N" format="1">
  <advance width="995"/>
  <unicode hex="004E"/>
  <outline>
    <contour>
      <point x="785" y="-17" type="curve" smooth="yes"/>
      <point x="845" y="-17"/>
      <point x="892" y="-13"/>
      <point x="892" y="8" type="curve" smooth="yes"/>
      <point x="892" y="21"/>
      <point x="887" y="57"/>
      <point x="887" y="105" type="curve" smooth="yes"/>
      <point x="887" y="291"/>
      <point x="888" y="442"/>
      <point x="888" y="528" type="curve" smooth="yes"/>
      <point x="889" y="570"/>
      <point x="907" y="579"/>
      <point x="952" y="586" type="curve" smooth="yes"/>
      <point x="975" y="590"/>
      <point x="985" y="592"/>
      <point x="985" y="597" type="curve" smooth="yes"/>
      <point x="985" y="601"/>
      <point x="973" y="602"/>
      <point x="959" y="602" type="curve" smooth="yes"/>
      <point x="908" y="602"/>
      <point x="903" y="598"/>
      <point x="874" y="598" type="curve" smooth="yes"/>
      <point x="838" y="598"/>
      <point x="832" y="602"/>
      <point x="792" y="602" type="curve" smooth="yes"/>
      <point x="777" y="602"/>
      <point x="763" y="600"/>
      <point x="763" y="596" type="curve" smooth="yes"/>
      <point x="763" y="592"/>
      <point x="776" y="590"/>
      <point x="801" y="587" type="curve" smooth="yes"/>
      <point x="851" y="580"/>
      <point x="867" y="568"/>
      <point x="867" y="529" type="curve"/>
      <point x="867" y="383"/>
      <point x="866" y="200"/>
      <point x="866" y="120" type="curve"/>
      <point x="865" y="105"/>
      <point x="861" y="99"/>
      <point x="856" y="99" type="curve" smooth="yes"/>
      <point x="848" y="99"/>
      <point x="836" y="112"/>
      <point x="831" y="117" type="curve" smooth="yes"/>
      <point x="811" y="139"/>
      <point x="441" y="555"/>
      <point x="421" y="581" type="curve"/>
      <point x="408" y="598"/>
      <point x="390" y="602"/>
      <point x="364" y="602" type="curve" smooth="yes"/>
      <point x="210" y="602"/>
      <point x="202" y="606"/>
      <point x="35" y="607" type="curve" smooth="yes"/>
      <point x="28" y="607"/>
      <point x="12" y="606"/>
      <point x="12" y="602" type="curve" smooth="yes"/>
      <point x="12" y="596"/>
      <point x="30" y="592"/>
      <point x="41" y="592" type="curve" smooth="yes"/>
      <point x="103" y="585"/>
      <point x="142" y="564"/>
      <point x="142" y="508" type="curve" smooth="yes"/>
      <point x="142" y="312"/>
      <point x="132" y="173"/>
      <point x="127" y="76" type="curve" smooth="yes"/>
      <point x="124" y="32"/>
      <point x="108" y="18"/>
      <point x="66" y="11" type="curve" smooth="yes"/>
      <point x="43" y="7"/>
      <point x="33" y="5"/>
      <point x="33" y="1" type="curve" smooth="yes"/>
      <point x="33" y="-4"/>
      <point x="44" y="-5"/>
      <point x="59" y="-5" type="curve" smooth="yes"/>
      <point x="108" y="-5"/>
      <point x="109" y="0"/>
      <point x="142" y="0" type="curve" smooth="yes"/>
      <point x="175" y="0"/>
      <point x="178" y="-5"/>
      <point x="226" y="-5" type="curve" smooth="yes"/>
      <point x="242" y="-5"/>
      <point x="253" y="-4"/>
      <point x="253" y="1" type="curve" smooth="yes"/>
      <point x="253" y="5"/>
      <point x="242" y="8"/>
      <point x="218" y="9" type="curve" smooth="yes"/>
      <point x="162" y="16"/>
      <point x="150" y="34"/>
      <point x="150" y="69" type="curve" smooth="yes"/>
      <point x="150" y="207"/>
      <point x="160" y="384"/>
      <point x="160" y="471" type="curve" smooth="yes"/>
      <point x="160" y="480"/>
      <point x="164" y="492"/>
      <point x="170" y="492" type="curve" smooth="yes"/>
      <point x="175" y="492"/>
      <point x="181" y="488"/>
      <point x="192" y="476" type="curve" smooth="yes"/>
      <point x="214" y="451"/>
      <point x="560" y="65"/>
      <point x="580" y="40" type="curve" smooth="yes"/>
      <point x="614" y="-1"/>
      <point x="710" y="-17"/>
    </contour>
  </outline>
</glyph>
<glyph name="O" format="1">
  <advance width="1079"/>
  <unicode hex="004F"/>
  <outline>
    <contour>
      <point x="533" y="-14" type="curve" smooth="yes"/>
      <point x="860" y="-14"/>
      <point x="1034" y="135"/>
      <point x="1034" y="309" type="curve" smooth="yes"/>
      <point x="1034" y="500"/>
      <point x="805" y="614"/>
      <point x="547" y="614" type="curve" smooth="yes"/>
      <point x="213" y="614"/>
      <point x="45" y="465"/>
      <point x="45" y="291" type="curve" smooth="yes"/>
      <point x="45" y="100"/>
      <point x="266" y="-14"/>
    </contour>
    <contour>
      <point x="550" y="2" type="curve" smooth="yes"/>
      <point x="383" y="2"/>
      <point x="299" y="154"/>
      <point x="299" y="340" type="curve" smooth="yes"/>
      <point x="299" y="496"/>
      <point x="377" y="596"/>
      <point x="528" y="596" type="curve" smooth="yes"/>
      <point x="695" y="596"/>
      <point x="780" y="446"/>
      <point x="780" y="261" type="curve" smooth="yes"/>
      <point x="780" y="105"/>
      <point x="703" y="2"/>
    </contour>
  </outline>
</glyph>
<glyph name="Q" format="1">
  <advance width="1079"/>
  <unicode hex="0051"/>
  <outline>
    <contour>
      <point x="1069" y="-261" type="curve" smooth="yes"/>
      <point x="1128" y="-261"/>
      <point x="1190" y="-246"/>
      <point x="1248" y="-212" type="curve" smooth="yes"/>
      <point x="1269" y="-200"/>
      <point x="1273" y="-194"/>
      <point x="1272" y="-180" type="curve" smooth="yes"/>
      <point x="1271" y="-173"/>
      <point x="1264" y="-171"/>
      <point x="1255" y="-172" type="curve" smooth="yes"/>
      <point x="1246" y="-173"/>
      <point x="1236" y="-177"/>
      <point x="1228" y="-179" type="curve"/>
      <point x="1215" y="-186"/>
      <point x="1182" y="-190"/>
      <point x="1146" y="-190" type="curve" smooth="yes"/>
      <point x="1055" y="-190"/>
      <point x="997" y="-174"/>
      <point x="918" y="-121" type="curve" smooth="yes"/>
      <point x="860" y="-81"/>
      <point x="816" y="-46"/>
      <point x="771" y="0" type="curve"/>
      <point x="767" y="3"/>
      <point x="766" y="6"/>
      <point x="766" y="9" type="curve" smooth="yes"/>
      <point x="766" y="11"/>
      <point x="767" y="14"/>
      <point x="776" y="16" type="curve" smooth="yes"/>
      <point x="944" y="63"/>
      <point x="1034" y="181"/>
      <point x="1034" y="309" type="curve" smooth="yes"/>
      <point x="1034" y="500"/>
      <point x="805" y="614"/>
      <point x="547" y="614" type="curve" smooth="yes"/>
      <point x="213" y="614"/>
      <point x="45" y="465"/>
      <point x="45" y="291" type="curve" smooth="yes"/>
      <point x="45" y="143"/>
      <point x="172" y="52"/>
      <point x="340" y="8" type="curve" smooth="yes"/>
      <point x="436" y="-18"/>
      <point x="496" y="-41"/>
      <point x="554" y="-76" type="curve" smooth="yes"/>
      <point x="619" y="-120"/>
      <point x="662" y="-144"/>
      <point x="729" y="-178" type="curve" smooth="yes"/>
      <point x="848" y="-231"/>
      <point x="920" y="-261"/>
    </contour>
    <contour>
      <point x="550" y="2" type="curve" smooth="yes"/>
      <point x="383" y="2"/>
      <point x="299" y="154"/>
      <point x="299" y="340" type="curve" smooth="yes"/>
      <point x="299" y="496"/>
      <point x="377" y="596"/>
      <point x="528" y="596" type="curve" smooth="yes"/>
      <point x="695" y="596"/>
      <point x="780" y="446"/>
      <point x="780" y="261" type="curve" smooth="yes"/>
      <point x="780" y="105"/>
      <point x="703" y="2"/>
    </contour>
  </outline>
</glyph>
<glyph name="S" format="1">
  <advance width="614"/>
  <unicode hex="0053"/>
  <outline>
    <contour>
      <point x="275" y="-16" type="curve" smooth="yes"/>
      <point x="453" y="-16"/>
      <point x="571" y="67"/>
      <point x="571" y="205" type="curve" smooth="yes"/>
      <point x="571" y="310"/>
      <point x="486" y="360"/>
      <point x="369" y="392" type="curve" smooth="yes"/>
      <point x="232" y="428"/>
      <point x="175" y="455"/>
      <point x="175" y="504" type="curve" smooth="yes"/>
      <point x="175" y="552"/>
      <point x="212" y="597"/>
      <point x="330" y="597" type="curve" smooth="yes"/>
      <point x="445" y="597"/>
      <point x="486" y="574"/>
      <point x="525" y="471" type="curve" smooth="yes"/>
      <point x="527" y="464"/>
      <point x="538" y="458"/>
      <point x="549" y="458" type="curve" smooth="yes"/>
      <point x="556" y="458"/>
      <point x="561" y="461"/>
      <point x="561" y="468" type="curve" smooth="yes"/>
      <point x="561" y="498"/>
      <point x="549" y="544"/>
      <point x="541" y="570" type="curve" smooth="yes"/>
      <point x="538" y="580"/>
      <point x="525" y="590"/>
      <point x="511" y="594" type="curve" smooth="yes"/>
      <point x="481" y="602"/>
      <point x="437" y="614"/>
      <point x="361" y="614" type="curve" smooth="yes"/>
      <point x="134" y="614"/>
      <point x="64" y="527"/>
      <point x="64" y="417" type="curve" smooth="yes"/>
      <point x="64" y="297"/>
      <point x="176" y="254"/>
      <point x="314" y="223" type="curve" smooth="yes"/>
      <point x="433" y="195"/>
      <point x="457" y="170"/>
      <point x="457" y="114" type="curve" smooth="yes"/>
      <point x="457" y="59"/>
      <point x="409" y="0"/>
      <point x="314" y="0" type="curve" smooth="yes"/>
      <point x="200" y="0"/>
      <point x="117" y="23"/>
      <point x="71" y="160" type="curve" smooth="yes"/>
      <point x="68" y="167"/>
      <point x="60" y="171"/>
      <point x="57" y="171" type="curve" smooth="yes"/>
      <point x="49" y="171"/>
      <point x="40" y="166"/>
      <point x="40" y="157" type="curve"/>
      <point x="41" y="128"/>
      <point x="45" y="77"/>
      <point x="54" y="49" type="curve" smooth="yes"/>
      <point x="56" y="41"/>
      <point x="64" y="33"/>
      <point x="71" y="29" type="curve"/>
      <point x="123" y="0"/>
      <point x="199" y="-16"/>
    </contour>
  </outline>
</glyph>
<glyph name="X" format="1">
  <advance width="886"/>
  <unicode hex="0058"/>
  <outline>
    <contour>
      <point x="24" y="-4" type="curve" smooth="yes"/>
      <point x="57" y="-4"/>
      <point x="105" y="0"/>
      <point x="150" y="0" type="curve" smooth="yes"/>
      <point x="186" y="0"/>
      <point x="221" y="0"/>
      <point x="239" y="0" type="curve" smooth="yes"/>
      <point x="256" y="0"/>
      <point x="268" y="1"/>
      <point x="268" y="5" type="curve" smooth="yes"/>
      <point x="268" y="10"/>
      <point x="258" y="13"/>
      <point x="235" y="16" type="curve"/>
      <point x="187" y="22"/>
      <point x="162" y="26"/>
      <point x="162" y="42" type="curve" smooth="yes"/>
      <point x="162" y="50"/>
      <point x="168" y="61"/>
      <point x="180" y="77" type="curve" smooth="yes"/>
      <point x="328" y="252" type="line" smooth="yes"/>
      <point x="335" y="260"/>
      <point x="340" y="261"/>
      <point x="351" y="247" type="curve" smooth="yes"/>
      <point x="463" y="92" type="line"/>
      <point x="473" y="79"/>
      <point x="477" y="69"/>
      <point x="478" y="59" type="curve" smooth="yes"/>
      <point x="478" y="37"/>
      <point x="466" y="24"/>
      <point x="427" y="18" type="curve" smooth="yes"/>
      <point x="413" y="15"/>
      <point x="394" y="12"/>
      <point x="394" y="7" type="curve" smooth="yes"/>
      <point x="394" y="3"/>
      <point x="413" y="1"/>
      <point x="440" y="1" type="curve" smooth="yes"/>
      <point x="478" y="1"/>
      <point x="540" y="3"/>
      <point x="605" y="3" type="curve" smooth="yes"/>
      <point x="679" y="3"/>
      <point x="788" y="-3"/>
      <point x="832" y="-3" type="curve" smooth="yes"/>
      <point x="859" y="-3"/>
      <point x="878" y="-2"/>
      <point x="878" y="2" type="curve" smooth="yes"/>
      <point x="878" y="7"/>
      <point x="868" y="10"/>
      <point x="845" y="13" type="curve" smooth="yes"/>
      <point x="819" y="16"/>
      <point x="778" y="51"/>
      <point x="750" y="89" type="curve" smooth="yes"/>
      <point x="579" y="317" type="line"/>
      <point x="572" y="330"/>
      <point x="576" y="335"/>
      <point x="591" y="354" type="curve" smooth="yes"/>
      <point x="713" y="505" type="line" smooth="yes"/>
      <point x="760" y="563"/>
      <point x="797" y="582"/>
      <point x="842" y="587" type="curve" smooth="yes"/>
      <point x="865" y="589"/>
      <point x="875" y="592"/>
      <point x="875" y="597" type="curve" smooth="yes"/>
      <point x="875" y="601"/>
      <point x="863" y="603"/>
      <point x="846" y="603" type="curve" smooth="yes"/>
      <point x="819" y="603"/>
      <point x="771" y="600"/>
      <point x="732" y="600" type="curve" smooth="yes"/>
      <point x="702" y="600"/>
      <point x="675" y="600"/>
      <point x="651" y="600" type="curve" smooth="yes"/>
      <point x="634" y="600"/>
      <point x="622" y="599"/>
      <point x="622" y="595" type="curve" smooth="yes"/>
      <point x="622" y="589"/>
      <point x="641" y="585"/>
      <point x="655" y="584" type="curve" smooth="yes"/>
      <point x="701" y="583"/>
      <point x="718" y="568"/>
      <point x="718" y="554" type="curve" smooth="yes"/>
      <point x="718" y="542"/>
      <point x="706" y="526"/>
      <point x="690" y="506" type="curve" smooth="yes"/>
      <point x="578" y="360" type="line" smooth="yes"/>
      <point x="566" y="346"/>
      <point x="560" y="343"/>
      <point x="546" y="362" type="curve" smooth="yes"/>
      <point x="437" y="507" type="line" smooth="yes"/>
      <point x="415" y="536"/>
      <point x="405" y="552"/>
      <point x="406" y="564" type="curve" smooth="yes"/>
      <point x="406" y="578"/>
      <point x="430" y="584"/>
      <point x="463" y="588" type="curve" smooth="yes"/>
      <point x="485" y="591"/>
      <point x="494" y="594"/>
      <point x="494" y="598" type="curve" smooth="yes"/>
      <point x="494" y="602"/>
      <point x="475" y="604"/>
      <point x="448" y="604" type="curve" smooth="yes"/>
      <point x="419" y="604"/>
      <point x="357" y="602"/>
      <point x="293" y="602" type="curve" smooth="yes"/>
      <point x="213" y="602"/>
      <point x="117" y="605"/>
      <point x="65" y="605" type="curve" smooth="yes"/>
      <point x="37" y="605"/>
      <point x="18" y="604"/>
      <point x="18" y="599" type="curve" smooth="yes"/>
      <point x="18" y="595"/>
      <point x="30" y="591"/>
      <point x="51" y="588" type="curve" smooth="yes"/>
      <point x="80" y="583"/>
      <point x="107" y="565"/>
      <point x="159" y="500" type="curve" smooth="yes"/>
      <point x="308" y="306" type="line" smooth="yes"/>
      <point x="328" y="280"/>
      <point x="318" y="264"/>
      <point x="302" y="246" type="curve"/>
      <point x="176" y="101" type="line" smooth="yes"/>
      <point x="133" y="53"/>
      <point x="63" y="21"/>
      <point x="35" y="17" type="curve" smooth="yes"/>
      <point x="6" y="11"/>
      <point x="-5" y="7"/>
      <point x="-5" y="1" type="curve" smooth="yes"/>
      <point x="-5" y="-3"/>
      <point x="7" y="-4"/>
    </contour>
  </outline>
</glyph>
<glyph name="Y" format="1">
  <advance width="747"/>
  <unicode hex="0059"/>
  <outline>
    <contour>
      <point x="197" y="-5" type="curve" smooth="yes"/>
      <point x="280" y="-5"/>
      <point x="317" y="-3"/>
      <point x="393" y="-3" type="curve" smooth="yes"/>
      <point x="463" y="-3"/>
      <point x="489" y="-5"/>
      <point x="572" y="-5" type="curve" smooth="yes"/>
      <point x="598" y="-5"/>
      <point x="616" y="-4"/>
      <point x="616" y="0" type="curve" smooth="yes"/>
      <point x="616" y="4"/>
      <point x="606" y="6"/>
      <point x="583" y="8" type="curve" smooth="yes"/>
      <point x="533" y="12"/>
      <point x="504" y="25"/>
      <point x="504" y="54" type="curve" smooth="yes"/>
      <point x="504" y="257" type="line" smooth="yes"/>
      <point x="504" y="293"/>
      <point x="503" y="301"/>
      <point x="529" y="340" type="curve" smooth="yes"/>
      <point x="573" y="407"/>
      <point x="592" y="435"/>
      <point x="638" y="508" type="curve" smooth="yes"/>
      <point x="672" y="560"/>
      <point x="693" y="579"/>
      <point x="729" y="586" type="curve" smooth="yes"/>
      <point x="754" y="590"/>
      <point x="781" y="593"/>
      <point x="781" y="597" type="curve" smooth="yes"/>
      <point x="781" y="602"/>
      <point x="769" y="603"/>
      <point x="752" y="603" type="curve" smooth="yes"/>
      <point x="729" y="603"/>
      <point x="689" y="602"/>
      <point x="648" y="602" type="curve" smooth="yes"/>
      <point x="619" y="602"/>
      <point x="603" y="602"/>
      <point x="573" y="602" type="curve" smooth="yes"/>
      <point x="556" y="602"/>
      <point x="544" y="600"/>
      <point x="544" y="597" type="curve" smooth="yes"/>
      <point x="544" y="593"/>
      <point x="562" y="589"/>
      <point x="575" y="588" type="curve" smooth="yes"/>
      <point x="615" y="586"/>
      <point x="635" y="575"/>
      <point x="634" y="552" type="curve" smooth="yes"/>
      <point x="634" y="543"/>
      <point x="629" y="531"/>
      <point x="620" y="517" type="curve" smooth="yes"/>
      <point x="589" y="464"/>
      <point x="554" y="405"/>
      <point x="525" y="362" type="curve" smooth="yes"/>
      <point x="507" y="336"/>
      <point x="498" y="315"/>
      <point x="490" y="315" type="curve" smooth="yes"/>
      <point x="484" y="315"/>
      <point x="476" y="326"/>
      <point x="462" y="350" type="curve" smooth="yes"/>
      <point x="348" y="543" type="line" smooth="yes"/>
      <point x="341" y="554"/>
      <point x="334" y="563"/>
      <point x="334" y="571" type="curve" smooth="yes"/>
      <point x="334" y="582"/>
      <point x="354" y="586"/>
      <point x="382" y="587" type="curve" smooth="yes"/>
      <point x="404" y="589"/>
      <point x="415" y="592"/>
      <point x="415" y="596" type="curve" smooth="yes"/>
      <point x="415" y="600"/>
      <point x="395" y="601"/>
      <point x="368" y="601" type="curve" smooth="yes"/>
      <point x="334" y="601"/>
      <point x="288" y="600"/>
      <point x="238" y="600" type="curve" smooth="yes"/>
      <point x="163" y="600"/>
      <point x="96" y="601"/>
      <point x="47" y="601" type="curve" smooth="yes"/>
      <point x="20" y="601"/>
      <point x="0" y="600"/>
      <point x="0" y="597" type="curve" smooth="yes"/>
      <point x="0" y="592"/>
      <point x="11" y="593"/>
      <point x="34" y="587" type="curve" smooth="yes"/>
      <point x="62" y="579"/>
      <point x="80" y="548"/>
      <point x="94" y="527" type="curve" smooth="yes"/>
      <point x="239" y="304" type="line"/>
      <point x="244" y="296"/>
      <point x="264" y="261"/>
      <point x="264" y="236" type="curve" smooth="yes"/>
      <point x="264" y="54" type="line" smooth="yes"/>
      <point x="264" y="23"/>
      <point x="236" y="12"/>
      <point x="186" y="8" type="curve" smooth="yes"/>
      <point x="163" y="6"/>
      <point x="153" y="4"/>
      <point x="153" y="0" type="curve" smooth="yes"/>
      <point x="153" y="-4"/>
      <point x="171" y="-5"/>
    </contour>
  </outline>
</glyph>
<glyph name="Z" format="1">
  <advance width="800"/>
  <unicode hex="005A"/>
  <outline>
    <contour>
      <point x="724" y="-5" type="curve" smooth="yes"/>
      <point x="738" y="-5"/>
      <point x="743" y="4"/>
      <point x="748" y="12" type="curve" smooth="yes"/>
      <point x="760" y="36"/>
      <point x="785" y="147"/>
      <point x="785" y="158" type="curve" smooth="yes"/>
      <point x="785" y="167"/>
      <point x="782" y="171"/>
      <point x="776" y="171" type="curve" smooth="yes"/>
      <point x="766" y="171"/>
      <point x="757" y="158"/>
      <point x="754" y="148" type="curve" smooth="yes"/>
      <point x="728" y="67"/>
      <point x="689" y="25"/>
      <point x="630" y="20" type="curve" smooth="yes"/>
      <point x="581" y="15"/>
      <point x="530" y="15"/>
      <point x="485" y="15" type="curve" smooth="yes"/>
      <point x="440" y="15"/>
      <point x="397" y="17"/>
      <point x="374" y="20" type="curve"/>
      <point x="360" y="21"/>
      <point x="356" y="28"/>
      <point x="356" y="36" type="curve" smooth="yes"/>
      <point x="356" y="39"/>
      <point x="357" y="44"/>
      <point x="359" y="46" type="curve" smooth="yes"/>
      <point x="481" y="214"/>
      <point x="569" y="336"/>
      <point x="704" y="505" type="curve" smooth="yes"/>
      <point x="767" y="582" type="line" smooth="yes"/>
      <point x="772" y="587"/>
      <point x="762" y="600"/>
      <point x="756" y="600" type="curve" smooth="yes"/>
      <point x="641" y="598"/>
      <point x="527" y="597"/>
      <point x="398" y="597" type="curve" smooth="yes"/>
      <point x="328" y="597"/>
      <point x="253" y="597"/>
      <point x="202" y="597" type="curve" smooth="yes"/>
      <point x="168" y="597"/>
      <point x="129" y="607"/>
      <point x="116" y="613" type="curve" smooth="yes"/>
      <point x="105" y="618"/>
      <point x="90" y="627"/>
      <point x="85" y="627" type="curve" smooth="yes"/>
      <point x="80" y="627"/>
      <point x="71" y="625"/>
      <point x="70" y="610" type="curve" smooth="yes"/>
      <point x="67" y="568"/>
      <point x="51" y="515"/>
      <point x="45" y="494" type="curve"/>
      <point x="43" y="485"/>
      <point x="38" y="472"/>
      <point x="38" y="464" type="curve" smooth="yes"/>
      <point x="39" y="457"/>
      <point x="44" y="453"/>
      <point x="50" y="455" type="curve" smooth="yes"/>
      <point x="64" y="457"/>
      <point x="72" y="481"/>
      <point x="76" y="494" type="curve"/>
      <point x="92" y="539"/>
      <point x="122" y="572"/>
      <point x="177" y="577" type="curve" smooth="yes"/>
      <point x="200" y="579"/>
      <point x="235" y="579"/>
      <point x="267" y="579" type="curve" smooth="yes"/>
      <point x="319" y="579"/>
      <point x="390" y="578"/>
      <point x="425" y="577" type="curve"/>
      <point x="440" y="576"/>
      <point x="443" y="573"/>
      <point x="443" y="569" type="curve" smooth="yes"/>
      <point x="443" y="566"/>
      <point x="441" y="564"/>
      <point x="440" y="561" type="curve" smooth="yes"/>
      <point x="314" y="386"/>
      <point x="219" y="266"/>
      <point x="86" y="96" type="curve" smooth="yes"/>
      <point x="63" y="68"/>
      <point x="28" y="20"/>
      <point x="28" y="11" type="curve"/>
      <point x="28" y="11"/>
      <point x="29" y="-3"/>
      <point x="37" y="-3" type="curve" smooth="yes"/>
      <point x="143" y="-3" type="line" smooth="yes"/>
      <point x="196" y="-3"/>
      <point x="253" y="-2"/>
      <point x="307" y="-2" type="curve" smooth="yes"/>
      <point x="430" y="-2"/>
      <point x="566" y="-5"/>
    </contour>
  </outline>
</glyph>
<glyph name="bracketleft" format="1">
  <advance width="387"/>
  <unicode hex="005B"/>
  <outline>
    <contour>
      <point x="141" y="-200" type="curve" smooth="yes"/>
      <point x="341" y="-200" type="line" smooth="yes"/>
      <point x="353" y="-200"/>
      <point x="367" y="-199"/>
      <point x="367" y="-193" type="curve" smooth="yes"/>
      <point x="367" y="-188"/>
      <point x="354" y="-185"/>
      <point x="341" y="-185" type="curve"/>
      <point x="262" y="-180" type="line" smooth="yes"/>
      <point x="250" y="-180"/>
      <point x="239" y="-173"/>
      <point x="239" y="-139" type="curve" smooth="yes"/>
      <point x="239" y="648" type="line" smooth="yes"/>
      <point x="239" y="677"/>
      <point x="247" y="683"/>
      <point x="262" y="685" type="curve" smooth="yes"/>
      <point x="341" y="688" type="line" smooth="yes"/>
      <point x="354" y="688"/>
      <point x="367" y="690"/>
      <point x="367" y="695" type="curve" smooth="yes"/>
      <point x="367" y="700"/>
      <point x="358" y="701"/>
      <point x="349" y="701" type="curve" smooth="yes"/>
      <point x="148" y="702" type="line" smooth="yes"/>
      <point x="116" y="702"/>
      <point x="110" y="702"/>
      <point x="110" y="668" type="curve" smooth="yes"/>
      <point x="110" y="-175" type="line" smooth="yes"/>
      <point x="110" y="-199"/>
      <point x="118" y="-200"/>
    </contour>
  </outline>
</glyph>
<glyph name="grave" format="1">
  <advance width="286"/>
  <unicode hex="0060"/>
  <outline>
    <contour>
      <point x="251" y="354" type="curve" smooth="yes"/>
      <point x="262" y="354"/>
      <point x="264" y="358"/>
      <point x="264" y="369" type="curve" smooth="yes"/>
      <point x="264" y="373"/>
      <point x="262" y="381"/>
      <point x="259" y="389" type="curve" smooth="yes"/>
      <point x="246" y="426"/>
      <point x="215" y="504"/>
      <point x="199" y="532" type="curve" smooth="yes"/>
      <point x="189" y="553"/>
      <point x="162" y="554"/>
      <point x="124" y="554" type="curve" smooth="yes"/>
      <point x="70" y="554"/>
      <point x="22" y="546"/>
      <point x="22" y="531" type="curve" smooth="yes"/>
      <point x="22" y="524"/>
      <point x="27" y="520"/>
      <point x="40" y="509" type="curve" smooth="yes"/>
      <point x="91" y="465"/>
      <point x="141" y="417"/>
      <point x="196" y="378" type="curve" smooth="yes"/>
      <point x="224" y="360"/>
      <point x="242" y="354"/>
    </contour>
  </outline>
</glyph>
<glyph name="b" format="1">
  <advance width="720"/>
  <unicode hex="0062"/>
  <outline>
    <contour>
      <point x="412" y="-14" type="curve" smooth="yes"/>
      <point x="574" y="-14"/>
      <point x="685" y="58"/>
      <point x="685" y="163" type="curve" smooth="yes"/>
      <point x="685" y="248"/>
      <point x="582" y="314"/>
      <point x="450" y="314" type="curve" smooth="yes"/>
      <point x="393" y="314"/>
      <point x="312" y="301"/>
      <point x="259" y="275" type="curve"/>
      <point x="252" y="276"/>
      <point x="250" y="280"/>
      <point x="250" y="301" type="curve" smooth="yes"/>
      <point x="250" y="543" type="line" smooth="yes"/>
      <point x="250" y="599"/>
      <point x="253" y="643"/>
      <point x="253" y="648" type="curve" smooth="yes"/>
      <point x="253" y="652"/>
      <point x="250" y="655"/>
      <point x="247" y="655" type="curve" smooth="yes"/>
      <point x="245" y="655"/>
      <point x="242" y="654"/>
      <point x="234" y="652" type="curve" smooth="yes"/>
      <point x="214" y="646"/>
      <point x="90" y="623"/>
      <point x="39" y="619" type="curve" smooth="yes"/>
      <point x="29" y="618"/>
      <point x="16" y="616"/>
      <point x="16" y="612" type="curve" smooth="yes"/>
      <point x="16" y="610"/>
      <point x="23" y="607"/>
      <point x="29" y="607" type="curve" smooth="yes"/>
      <point x="65" y="597"/>
      <point x="75" y="590"/>
      <point x="75" y="558" type="curve" smooth="yes"/>
      <point x="75" y="81" type="line" smooth="yes"/>
      <point x="75" y="56"/>
      <point x="68" y="24"/>
      <point x="68" y="12" type="curve" smooth="yes"/>
      <point x="68" y="4"/>
      <point x="74" y="-3"/>
      <point x="82" y="-3" type="curve" smooth="yes"/>
      <point x="85" y="-3"/>
      <point x="88" y="-1"/>
      <point x="91" y="2" type="curve" smooth="yes"/>
      <point x="98" y="8"/>
      <point x="107" y="15"/>
      <point x="120" y="15" type="curve" smooth="yes"/>
      <point x="132" y="15"/>
      <point x="177" y="-1"/>
      <point x="225" y="-6" type="curve" smooth="yes"/>
      <point x="281" y="-10"/>
      <point x="349" y="-14"/>
    </contour>
    <contour>
      <point x="387" y="-1" type="curve" smooth="yes"/>
      <point x="309" y="-1"/>
      <point x="250" y="23"/>
      <point x="250" y="84" type="curve" smooth="yes"/>
      <point x="250" y="248" type="line"/>
      <point x="279" y="270"/>
      <point x="319" y="284"/>
      <point x="372" y="284" type="curve" smooth="yes"/>
      <point x="467" y="284"/>
      <point x="510" y="203"/>
      <point x="510" y="141" type="curve" smooth="yes"/>
      <point x="510" y="60"/>
      <point x="463" y="-1"/>
    </contour>
  </outline>
</glyph>
<glyph name="c" format="1">
  <advance width="509"/>
  <unicode hex="0063"/>
  <outline>
    <contour>
      <point x="308" y="-14" type="curve" smooth="yes"/>
      <point x="376" y="-14"/>
      <point x="421" y="12"/>
      <point x="447" y="45" type="curve" smooth="yes"/>
      <point x="463" y="63"/>
      <point x="472" y="84"/>
      <point x="472" y="97" type="curve" smooth="yes"/>
      <point x="473" y="100"/>
      <point x="472" y="101"/>
      <point x="469" y="101" type="curve" smooth="yes"/>
      <point x="466" y="101"/>
      <point x="465" y="101"/>
      <point x="462" y="97" type="curve" smooth="yes"/>
      <point x="435" y="64"/>
      <point x="399" y="42"/>
      <point x="357" y="42" type="curve" smooth="yes"/>
      <point x="265" y="42"/>
      <point x="206" y="69"/>
      <point x="206" y="159" type="curve" smooth="yes"/>
      <point x="206" y="234"/>
      <point x="251" y="298"/>
      <point x="316" y="298" type="curve" smooth="yes"/>
      <point x="352" y="298"/>
      <point x="382" y="262"/>
      <point x="408" y="233" type="curve" smooth="yes"/>
      <point x="416" y="225"/>
      <point x="425" y="218"/>
      <point x="432" y="218" type="curve" smooth="yes"/>
      <point x="451" y="218"/>
      <point x="474" y="248"/>
      <point x="474" y="263" type="curve" smooth="yes"/>
      <point x="474" y="268"/>
      <point x="470" y="272"/>
      <point x="462" y="277" type="curve" smooth="yes"/>
      <point x="427" y="303"/>
      <point x="391" y="314"/>
      <point x="348" y="314" type="curve" smooth="yes"/>
      <point x="176" y="314"/>
      <point x="35" y="234"/>
      <point x="35" y="135" type="curve" smooth="yes"/>
      <point x="35" y="50"/>
      <point x="153" y="-14"/>
    </contour>
  </outline>
</glyph>
<glyph name="f" format="1">
  <advance width="423"/>
  <unicode hex="0066"/>
  <outline>
    <contour>
      <point x="53" y="-3" type="curve" smooth="yes"/>
      <point x="112" y="-3"/>
      <point x="124" y="2"/>
      <point x="175" y="2" type="curve" smooth="yes"/>
      <point x="226" y="2"/>
      <point x="266" y="-3"/>
      <point x="325" y="-3" type="curve" smooth="yes"/>
      <point x="344" y="-3"/>
      <point x="354" y="-2"/>
      <point x="354" y="2" type="curve" smooth="yes"/>
      <point x="354" y="7"/>
      <point x="345" y="9"/>
      <point x="331" y="9" type="curve" smooth="yes"/>
      <point x="277" y="15"/>
      <point x="265" y="20"/>
      <point x="265" y="42" type="curve" smooth="yes"/>
      <point x="265" y="274" type="line" smooth="yes"/>
      <point x="265" y="277"/>
      <point x="268" y="280"/>
      <point x="284" y="280" type="curve" smooth="yes"/>
      <point x="399" y="280" type="line" smooth="yes"/>
      <point x="402" y="280"/>
      <point x="406" y="280"/>
      <point x="408" y="282" type="curve" smooth="yes"/>
      <point x="410" y="286"/>
      <point x="414" y="290"/>
      <point x="414" y="294" type="curve" smooth="yes"/>
      <point x="414" y="296"/>
      <point x="408" y="300"/>
      <point x="401" y="300" type="curve" smooth="yes"/>
      <point x="276" y="300" type="line" smooth="yes"/>
      <point x="270" y="300"/>
      <point x="265" y="300"/>
      <point x="265" y="308" type="curve" smooth="yes"/>
      <point x="265" y="441" type="line" smooth="yes"/>
      <point x="265" y="563"/>
      <point x="312" y="630"/>
      <point x="365" y="630" type="curve" smooth="yes"/>
      <point x="406" y="630"/>
      <point x="432" y="612"/>
      <point x="457" y="578" type="curve" smooth="yes"/>
      <point x="467" y="564"/>
      <point x="479" y="555"/>
      <point x="491" y="555" type="curve" smooth="yes"/>
      <point x="509" y="555"/>
      <point x="525" y="568"/>
      <point x="525" y="595" type="curve" smooth="yes"/>
      <point x="525" y="629"/>
      <point x="476" y="655"/>
      <point x="368" y="655" type="curve" smooth="yes"/>
      <point x="256" y="655"/>
      <point x="90" y="599"/>
      <point x="90" y="411" type="curve" smooth="yes"/>
      <point x="90" y="306" type="line"/>
      <point x="70" y="301"/>
      <point x="55" y="298"/>
      <point x="31" y="293" type="curve" smooth="yes"/>
      <point x="29" y="292"/>
      <point x="24" y="292"/>
      <point x="24" y="290" type="curve" smooth="yes"/>
      <point x="24" y="287"/>
      <point x="34" y="280"/>
      <point x="38" y="280" type="curve"/>
      <point x="59" y="279"/>
      <point x="77" y="279"/>
      <point x="90" y="279" type="curve"/>
      <point x="90" y="42" type="line" smooth="yes"/>
      <point x="90" y="20"/>
      <point x="78" y="16"/>
      <point x="47" y="9" type="curve" smooth="yes"/>
      <point x="33" y="8"/>
      <point x="24" y="7"/>
      <point x="24" y="2" type="curve" smooth="yes"/>
      <point x="24" y="-2"/>
      <point x="34" y="-3"/>
    </contour>
  </outline>
</glyph>
<glyph name="h" format="1">
  <advance width="728"/>
  <unicode hex="0068"/>
  <outline>
    <contour>
      <point x="50" y="-3" type="curve" smooth="yes"/>
      <point x="111" y="-3"/>
      <point x="120" y="-1"/>
      <point x="174" y="-1" type="curve" smooth="yes"/>
      <point x="227" y="-1"/>
      <point x="229" y="-3"/>
      <point x="290" y="-3" type="curve" smooth="yes"/>
      <point x="313" y="-3"/>
      <point x="321" y="-2"/>
      <point x="321" y="3" type="curve" smooth="yes"/>
      <point x="321" y="6"/>
      <point x="313" y="8"/>
      <point x="299" y="9" type="curve" smooth="yes"/>
      <point x="279" y="13"/>
      <point x="259" y="17"/>
      <point x="260" y="29" type="curve" smooth="yes"/>
      <point x="260" y="182" type="line" smooth="yes"/>
      <point x="260" y="223"/>
      <point x="266" y="237"/>
      <point x="287" y="254" type="curve" smooth="yes"/>
      <point x="306" y="269"/>
      <point x="345" y="276"/>
      <point x="370" y="276" type="curve" smooth="yes"/>
      <point x="413" y="276"/>
      <point x="463" y="236"/>
      <point x="463" y="186" type="curve" smooth="yes"/>
      <point x="463" y="31" type="line" smooth="yes"/>
      <point x="463" y="19"/>
      <point x="444" y="13"/>
      <point x="424" y="9" type="curve" smooth="yes"/>
      <point x="409" y="8"/>
      <point x="401" y="6"/>
      <point x="401" y="3" type="curve" smooth="yes"/>
      <point x="401" y="-2"/>
      <point x="410" y="-3"/>
      <point x="432" y="-3" type="curve" smooth="yes"/>
      <point x="494" y="-3"/>
      <point x="499" y="-1"/>
      <point x="553" y="-1" type="curve" smooth="yes"/>
      <point x="607" y="-1"/>
      <point x="612" y="-3"/>
      <point x="673" y="-3" type="curve" smooth="yes"/>
      <point x="695" y="-3"/>
      <point x="705" y="-2"/>
      <point x="705" y="3" type="curve" smooth="yes"/>
      <point x="705" y="6"/>
      <point x="696" y="8"/>
      <point x="682" y="9" type="curve" smooth="yes"/>
      <point x="662" y="13"/>
      <point x="641" y="19"/>
      <point x="641" y="31" type="curve" smooth="yes"/>
      <point x="641" y="178" type="line" smooth="yes"/>
      <point x="641" y="256"/>
      <point x="570" y="314"/>
      <point x="477" y="314" type="curve" smooth="yes"/>
      <point x="371" y="314"/>
      <point x="273" y="262"/>
      <point x="238" y="246" type="curve"/>
      <point x="270" y="246" type="line"/>
      <point x="262" y="259"/>
      <point x="260" y="262"/>
      <point x="260" y="288" type="curve" smooth="yes"/>
      <point x="260" y="512" type="line" smooth="yes"/>
      <point x="260" y="619"/>
      <point x="269" y="636"/>
      <point x="269" y="648" type="curve" smooth="yes"/>
      <point x="269" y="652"/>
      <point x="266" y="655"/>
      <point x="262" y="655" type="curve" smooth="yes"/>
      <point x="258" y="655"/>
      <point x="255" y="654"/>
      <point x="251" y="653" type="curve" smooth="yes"/>
      <point x="193" y="636"/>
      <point x="98" y="623"/>
      <point x="47" y="619" type="curve" smooth="yes"/>
      <point x="36" y="618"/>
      <point x="32" y="616"/>
      <point x="32" y="613" type="curve" smooth="yes"/>
      <point x="32" y="609"/>
      <point x="35" y="607"/>
      <point x="41" y="606" type="curve" smooth="yes"/>
      <point x="75" y="603"/>
      <point x="85" y="589"/>
      <point x="85" y="572" type="curve" smooth="yes"/>
      <point x="85" y="29" type="line" smooth="yes"/>
      <point x="86" y="17"/>
      <point x="62" y="13"/>
      <point x="42" y="9" type="curve" smooth="yes"/>
      <point x="25" y="8"/>
      <point x="19" y="6"/>
      <point x="19" y="3" type="curve" smooth="yes"/>
      <point x="19" y="-2"/>
      <point x="31" y="-3"/>
    </contour>
  </outline>
</glyph>
<glyph name="i" format="1">
  <advance width="350"/>
  <unicode hex="0069"/>
  <outline>
    <contour>
      <point x="54" y="-3" type="curve" smooth="yes"/>
      <point x="114" y="-3"/>
      <point x="124" y="2"/>
      <point x="178" y="2" type="curve" smooth="yes"/>
      <point x="231" y="2"/>
      <point x="243" y="-3"/>
      <point x="301" y="-3" type="curve" smooth="yes"/>
      <point x="320" y="-3"/>
      <point x="331" y="0"/>
      <point x="331" y="3" type="curve" smooth="yes"/>
      <point x="331" y="7"/>
      <point x="319" y="10"/>
      <point x="308" y="11" type="curve" smooth="yes"/>
      <point x="281" y="15"/>
      <point x="265" y="19"/>
      <point x="265" y="36" type="curve" smooth="yes"/>
      <point x="265" y="169" type="line" smooth="yes"/>
      <point x="265" y="214"/>
      <point x="274" y="288"/>
      <point x="274" y="304" type="curve" smooth="yes"/>
      <point x="274" y="307"/>
      <point x="272" y="309"/>
      <point x="268" y="309" type="curve" smooth="yes"/>
      <point x="261" y="309"/>
      <point x="252" y="306"/>
      <point x="243" y="301" type="curve" smooth="yes"/>
      <point x="212" y="285"/>
      <point x="154" y="254"/>
      <point x="52" y="243" type="curve" smooth="yes"/>
      <point x="40" y="242"/>
      <point x="35" y="241"/>
      <point x="35" y="238" type="curve" smooth="yes"/>
      <point x="35" y="233"/>
      <point x="38" y="231"/>
      <point x="45" y="230" type="curve" smooth="yes"/>
      <point x="79" y="226"/>
      <point x="90" y="201"/>
      <point x="90" y="173" type="curve" smooth="yes"/>
      <point x="90" y="36" type="line" smooth="yes"/>
      <point x="90" y="19"/>
      <point x="75" y="15"/>
      <point x="47" y="11" type="curve" smooth="yes"/>
      <point x="36" y="10"/>
      <point x="24" y="7"/>
      <point x="24" y="3" type="curve" smooth="yes"/>
      <point x="24" y="0"/>
      <point x="36" y="-3"/>
    </contour>
    <contour>
      <point x="176" y="385" type="curve" smooth="yes"/>
      <point x="243" y="385"/>
      <point x="280" y="403"/>
      <point x="280" y="435" type="curve" smooth="yes"/>
      <point x="280" y="468"/>
      <point x="243" y="486"/>
      <point x="176" y="486" type="curve" smooth="yes"/>
      <point x="111" y="486"/>
      <point x="74" y="468"/>
      <point x="74" y="435" type="curve" smooth="yes"/>
      <point x="74" y="403"/>
      <point x="111" y="385"/>
    </contour>
  </outline>
</glyph>
<glyph name="j" format="1">
  <advance width="334"/>
  <unicode hex="006A"/>
  <outline>
    <contour>
      <point x="24" y="-206" type="curve" smooth="yes"/>
      <point x="104" y="-206"/>
      <point x="183" y="-139"/>
      <point x="220" y="-71" type="curve" smooth="yes"/>
      <point x="263" y="9"/>
      <point x="264" y="110"/>
      <point x="264" y="172" type="curve" smooth="yes"/>
      <point x="264" y="150" type="line" smooth="yes"/>
      <point x="264" y="195"/>
      <point x="267" y="263"/>
      <point x="271" y="304" type="curve"/>
      <point x="271" y="307"/>
      <point x="268" y="309"/>
      <point x="264" y="309" type="curve" smooth="yes"/>
      <point x="261" y="309"/>
      <point x="252" y="303"/>
      <point x="240" y="298" type="curve" smooth="yes"/>
      <point x="205" y="286"/>
      <point x="153" y="260"/>
      <point x="48" y="243" type="curve" smooth="yes"/>
      <point x="40" y="242"/>
      <point x="35" y="239"/>
      <point x="35" y="237" type="curve" smooth="yes"/>
      <point x="35" y="234"/>
      <point x="38" y="231"/>
      <point x="43" y="231" type="curve" smooth="yes"/>
      <point x="77" y="229"/>
      <point x="89" y="202"/>
      <point x="89" y="175" type="curve" smooth="yes"/>
      <point x="89" y="115" type="line" smooth="yes"/>
      <point x="89" y="46"/>
      <point x="86" y="-90"/>
      <point x="57" y="-151" type="curve" smooth="yes"/>
      <point x="38" y="-191"/>
      <point x="15" y="-155"/>
      <point x="-22" y="-164" type="curve"/>
      <point x="-26" y="-165"/>
      <point x="-39" y="-178"/>
      <point x="-39" y="-191" type="curve" smooth="yes"/>
      <point x="-39" y="-201"/>
      <point x="3" y="-206"/>
    </contour>
    <contour>
      <point x="171" y="385" type="curve" smooth="yes"/>
      <point x="238" y="385"/>
      <point x="275" y="403"/>
      <point x="275" y="435" type="curve" smooth="yes"/>
      <point x="275" y="468"/>
      <point x="238" y="486"/>
      <point x="171" y="486" type="curve" smooth="yes"/>
      <point x="106" y="486"/>
      <point x="69" y="468"/>
      <point x="69" y="435" type="curve" smooth="yes"/>
      <point x="69" y="403"/>
      <point x="106" y="385"/>
    </contour>
  </outline>
</glyph>
<glyph name="k" format="1">
  <advance width="712"/>
  <unicode hex="006B"/>
  <outline>
    <contour>
      <point x="42" y="-3" type="curve" smooth="yes"/>
      <point x="105" y="-3"/>
      <point x="111" y="2"/>
      <point x="168" y="2" type="curve" smooth="yes"/>
      <point x="224" y="2"/>
      <point x="218" y="-3"/>
      <point x="281" y="-3" type="curve" smooth="yes"/>
      <point x="289" y="-3"/>
      <point x="318" y="-3"/>
      <point x="318" y="3" type="curve" smooth="yes"/>
      <point x="318" y="7"/>
      <point x="306" y="9"/>
      <point x="295" y="10" type="curve" smooth="yes"/>
      <point x="271" y="13"/>
      <point x="260" y="15"/>
      <point x="260" y="44" type="curve" smooth="yes"/>
      <point x="259" y="73"/>
      <point x="259" y="85"/>
      <point x="259" y="95" type="curve" smooth="yes"/>
      <point x="259" y="106"/>
      <point x="259" y="138"/>
      <point x="260" y="147" type="curve"/>
      <point x="260" y="149"/>
      <point x="262" y="150"/>
      <point x="265" y="150" type="curve" smooth="yes"/>
      <point x="269" y="150"/>
      <point x="271" y="149"/>
      <point x="275" y="147" type="curve" smooth="yes"/>
      <point x="408" y="41" type="line"/>
      <point x="417" y="35"/>
      <point x="425" y="29"/>
      <point x="425" y="22" type="curve" smooth="yes"/>
      <point x="425" y="13"/>
      <point x="410" y="12"/>
      <point x="375" y="11" type="curve" smooth="yes"/>
      <point x="366" y="11"/>
      <point x="359" y="7"/>
      <point x="359" y="4" type="curve" smooth="yes"/>
      <point x="359" y="2"/>
      <point x="365" y="0"/>
      <point x="388" y="0" type="curve" smooth="yes"/>
      <point x="498" y="0"/>
      <point x="606" y="-3"/>
      <point x="689" y="-3" type="curve" smooth="yes"/>
      <point x="709" y="-3"/>
      <point x="722" y="-2"/>
      <point x="722" y="3" type="curve" smooth="yes"/>
      <point x="722" y="6"/>
      <point x="715" y="8"/>
      <point x="704" y="9" type="curve" smooth="yes"/>
      <point x="687" y="11"/>
      <point x="667" y="21"/>
      <point x="634" y="40" type="curve" smooth="yes"/>
      <point x="611" y="53"/>
      <point x="496" y="166"/>
      <point x="444" y="190" type="curve" smooth="yes"/>
      <point x="442" y="191"/>
      <point x="441" y="192"/>
      <point x="441" y="193" type="curve" smooth="yes"/>
      <point x="441" y="194"/>
      <point x="443" y="197"/>
      <point x="447" y="198" type="curve" smooth="yes"/>
      <point x="496" y="220"/>
      <point x="568" y="245"/>
      <point x="595" y="262" type="curve" smooth="yes"/>
      <point x="619" y="276"/>
      <point x="650" y="286"/>
      <point x="675" y="291" type="curve" smooth="yes"/>
      <point x="689" y="295"/>
      <point x="700" y="298"/>
      <point x="700" y="302" type="curve" smooth="yes"/>
      <point x="700" y="306"/>
      <point x="695" y="307"/>
      <point x="686" y="307" type="curve" smooth="yes"/>
      <point x="665" y="307"/>
      <point x="626" y="302"/>
      <point x="595" y="302" type="curve" smooth="yes"/>
      <point x="523" y="302" type="line" smooth="yes"/>
      <point x="509" y="302"/>
      <point x="501" y="299"/>
      <point x="501" y="296" type="curve" smooth="yes"/>
      <point x="501" y="294"/>
      <point x="504" y="292"/>
      <point x="513" y="292" type="curve" smooth="yes"/>
      <point x="542" y="291"/>
      <point x="556" y="284"/>
      <point x="556" y="272" type="curve" smooth="yes"/>
      <point x="556" y="268"/>
      <point x="551" y="265"/>
      <point x="538" y="263" type="curve" smooth="yes"/>
      <point x="485" y="230"/>
      <point x="403" y="201"/>
      <point x="301" y="165" type="curve" smooth="yes"/>
      <point x="284" y="158"/>
      <point x="273" y="155"/>
      <point x="265" y="155" type="curve" smooth="yes"/>
      <point x="262" y="155"/>
      <point x="260" y="158"/>
      <point x="260" y="164" type="curve" smooth="yes"/>
      <point x="260" y="511" type="line" smooth="yes"/>
      <point x="260" y="596"/>
      <point x="269" y="631"/>
      <point x="269" y="645" type="curve" smooth="yes"/>
      <point x="269" y="651"/>
      <point x="266" y="654"/>
      <point x="259" y="654" type="curve" smooth="yes"/>
      <point x="253" y="654"/>
      <point x="244" y="651"/>
      <point x="235" y="649" type="curve" smooth="yes"/>
      <point x="183" y="633"/>
      <point x="115" y="624"/>
      <point x="39" y="618" type="curve" smooth="yes"/>
      <point x="34" y="617"/>
      <point x="31" y="615"/>
      <point x="31" y="611" type="curve" smooth="yes"/>
      <point x="31" y="607"/>
      <point x="34" y="606"/>
      <point x="40" y="606" type="curve" smooth="yes"/>
      <point x="87" y="602"/>
      <point x="85" y="590"/>
      <point x="85" y="550" type="curve" smooth="yes"/>
      <point x="85" y="39" type="line" smooth="yes"/>
      <point x="85" y="17"/>
      <point x="74" y="14"/>
      <point x="42" y="10" type="curve" smooth="yes"/>
      <point x="31" y="9"/>
      <point x="19" y="7"/>
      <point x="19" y="3" type="curve" smooth="yes"/>
      <point x="19" y="-2"/>
      <point x="27" y="-3"/>
    </contour>
  </outline>
</glyph>
<glyph name="l" format="1">
  <advance width="345"/>
  <unicode hex="006C"/>
  <outline>
    <contour>
      <point x="49" y="-3" type="curve" smooth="yes"/>
      <point x="109" y="-3"/>
      <point x="119" y="2"/>
      <point x="173" y="2" type="curve" smooth="yes"/>
      <point x="226" y="2"/>
      <point x="236" y="-3"/>
      <point x="296" y="-3" type="curve" smooth="yes"/>
      <point x="306" y="-3"/>
      <point x="326" y="-3"/>
      <point x="326" y="2" type="curve" smooth="yes"/>
      <point x="326" y="7"/>
      <point x="314" y="9"/>
      <point x="303" y="12" type="curve"/>
      <point x="283" y="15"/>
      <point x="260" y="17"/>
      <point x="260" y="38" type="curve" smooth="yes"/>
      <point x="260" y="511" type="line" smooth="yes"/>
      <point x="260" y="601"/>
      <point x="267" y="635"/>
      <point x="267" y="647" type="curve" smooth="yes"/>
      <point x="267" y="650"/>
      <point x="265" y="654"/>
      <point x="262" y="654" type="curve" smooth="yes"/>
      <point x="258" y="654"/>
      <point x="255" y="653"/>
      <point x="251" y="652" type="curve" smooth="yes"/>
      <point x="193" y="628"/>
      <point x="138" y="616"/>
      <point x="47" y="609" type="curve" smooth="yes"/>
      <point x="36" y="608"/>
      <point x="31" y="605"/>
      <point x="31" y="602" type="curve" smooth="yes"/>
      <point x="31" y="597"/>
      <point x="34" y="596"/>
      <point x="44" y="594" type="curve" smooth="yes"/>
      <point x="75" y="589"/>
      <point x="85" y="570"/>
      <point x="85" y="540" type="curve" smooth="yes"/>
      <point x="85" y="37" type="line" smooth="yes"/>
      <point x="85" y="17"/>
      <point x="62" y="15"/>
      <point x="42" y="12" type="curve"/>
      <point x="31" y="9"/>
      <point x="19" y="7"/>
      <point x="19" y="2" type="curve" smooth="yes"/>
      <point x="19" y="-3"/>
      <point x="39" y="-3"/>
    </contour>
  </outline>
</glyph>
<glyph name="m" format="1">
  <advance width="1094"/>
  <unicode hex="006D"/>
  <outline>
    <contour>
      <point x="54" y="-3" type="curve" smooth="yes"/>
      <point x="115" y="-3"/>
      <point x="124" y="2"/>
      <point x="178" y="2" type="curve" smooth="yes"/>
      <point x="231" y="2"/>
      <point x="240" y="-3"/>
      <point x="301" y="-3" type="curve" smooth="yes"/>
      <point x="319" y="-3"/>
      <point x="331" y="-2"/>
      <point x="331" y="2" type="curve" smooth="yes"/>
      <point x="331" y="7"/>
      <point x="319" y="8"/>
      <point x="308" y="9" type="curve" smooth="yes"/>
      <point x="288" y="12"/>
      <point x="265" y="13"/>
      <point x="265" y="29" type="curve" smooth="yes"/>
      <point x="265" y="168" type="line" smooth="yes"/>
      <point x="265" y="209"/>
      <point x="273" y="235"/>
      <point x="292" y="252" type="curve" smooth="yes"/>
      <point x="318" y="274"/>
      <point x="345" y="286"/>
      <point x="379" y="286" type="curve" smooth="yes"/>
      <point x="422" y="286"/>
      <point x="459" y="230"/>
      <point x="459" y="173" type="curve" smooth="yes"/>
      <point x="459" y="29" type="line" smooth="yes"/>
      <point x="459" y="13"/>
      <point x="435" y="12"/>
      <point x="415" y="9" type="curve" smooth="yes"/>
      <point x="404" y="8"/>
      <point x="392" y="7"/>
      <point x="392" y="2" type="curve" smooth="yes"/>
      <point x="392" y="-2"/>
      <point x="406" y="-3"/>
      <point x="422" y="-3" type="curve" smooth="yes"/>
      <point x="483" y="-3"/>
      <point x="495" y="2"/>
      <point x="548" y="2" type="curve" smooth="yes"/>
      <point x="601" y="2"/>
      <point x="612" y="-3"/>
      <point x="672" y="-3" type="curve" smooth="yes"/>
      <point x="692" y="-3"/>
      <point x="702" y="-2"/>
      <point x="702" y="2" type="curve" smooth="yes"/>
      <point x="702" y="6"/>
      <point x="692" y="8"/>
      <point x="679" y="9" type="curve" smooth="yes"/>
      <point x="659" y="11"/>
      <point x="634" y="13"/>
      <point x="634" y="29" type="curve" smooth="yes"/>
      <point x="634" y="168" type="line" smooth="yes"/>
      <point x="634" y="210"/>
      <point x="644" y="235"/>
      <point x="662" y="252" type="curve" smooth="yes"/>
      <point x="687" y="275"/>
      <point x="715" y="286"/>
      <point x="749" y="286" type="curve" smooth="yes"/>
      <point x="792" y="286"/>
      <point x="829" y="230"/>
      <point x="829" y="173" type="curve" smooth="yes"/>
      <point x="829" y="29" type="line" smooth="yes"/>
      <point x="829" y="13"/>
      <point x="807" y="11"/>
      <point x="786" y="9" type="curve" smooth="yes"/>
      <point x="773" y="8"/>
      <point x="763" y="7"/>
      <point x="763" y="2" type="curve" smooth="yes"/>
      <point x="763" y="-2"/>
      <point x="775" y="-3"/>
      <point x="793" y="-3" type="curve" smooth="yes"/>
      <point x="854" y="-3"/>
      <point x="867" y="2"/>
      <point x="920" y="2" type="curve" smooth="yes"/>
      <point x="973" y="2"/>
      <point x="980" y="-3"/>
      <point x="1040" y="-3" type="curve" smooth="yes"/>
      <point x="1063" y="-3"/>
      <point x="1071" y="-2"/>
      <point x="1071" y="2" type="curve" smooth="yes"/>
      <point x="1071" y="6"/>
      <point x="1061" y="8"/>
      <point x="1048" y="9" type="curve" smooth="yes"/>
      <point x="1028" y="12"/>
      <point x="1005" y="13"/>
      <point x="1005" y="29" type="curve" smooth="yes"/>
      <point x="1005" y="175" type="line" smooth="yes"/>
      <point x="1005" y="245"/>
      <point x="956" y="314"/>
      <point x="865" y="314" type="curve" smooth="yes"/>
      <point x="773" y="314"/>
      <point x="696" y="287"/>
      <point x="636" y="254" type="curve"/>
      <point x="632" y="254" type="line"/>
      <point x="602" y="299"/>
      <point x="559" y="314"/>
      <point x="492" y="314" type="curve" smooth="yes"/>
      <point x="383" y="314"/>
      <point x="314" y="281"/>
      <point x="272" y="255" type="curve"/>
      <point x="270" y="255" type="line"/>
      <point x="269" y="256"/>
      <point x="268" y="260"/>
      <point x="268" y="266" type="curve" smooth="yes"/>
      <point x="268" y="278"/>
      <point x="273" y="311"/>
      <point x="273" y="320" type="curve" smooth="yes"/>
      <point x="273" y="327"/>
      <point x="270" y="330"/>
      <point x="264" y="330" type="curve" smooth="yes"/>
      <point x="259" y="330"/>
      <point x="254" y="327"/>
      <point x="250" y="325" type="curve" smooth="yes"/>
      <point x="188" y="301"/>
      <point x="161" y="276"/>
      <point x="58" y="267" type="curve" smooth="yes"/>
      <point x="48" y="266"/>
      <point x="43" y="266"/>
      <point x="43" y="262" type="curve" smooth="yes"/>
      <point x="43" y="256"/>
      <point x="47" y="255"/>
      <point x="53" y="254" type="curve" smooth="yes"/>
      <point x="84" y="251"/>
      <point x="90" y="232"/>
      <point x="90" y="196" type="curve" smooth="yes"/>
      <point x="90" y="29" type="line" smooth="yes"/>
      <point x="90" y="13"/>
      <point x="66" y="12"/>
      <point x="47" y="9" type="curve" smooth="yes"/>
      <point x="34" y="8"/>
      <point x="24" y="6"/>
      <point x="24" y="2" type="curve" smooth="yes"/>
      <point x="24" y="-2"/>
      <point x="38" y="-3"/>
    </contour>
  </outline>
</glyph>
<glyph name="o" format="1">
  <advance width="692"/>
  <unicode hex="006F"/>
  <outline>
    <contour>
      <point x="326" y="-14" type="curve" smooth="yes"/>
      <point x="532" y="-14"/>
      <point x="657" y="53"/>
      <point x="657" y="160" type="curve" smooth="yes"/>
      <point x="657" y="249"/>
      <point x="532" y="314"/>
      <point x="355" y="314" type="curve" smooth="yes"/>
      <point x="178" y="314"/>
      <point x="35" y="236"/>
      <point x="35" y="140" type="curve" smooth="yes"/>
      <point x="35" y="47"/>
      <point x="149" y="-14"/>
    </contour>
    <contour>
      <point x="353" y="0" type="curve" smooth="yes"/>
      <point x="277" y="0"/>
      <point x="215" y="69"/>
      <point x="215" y="158" type="curve" smooth="yes"/>
      <point x="215" y="252"/>
      <point x="254" y="299"/>
      <point x="335" y="299" type="curve" smooth="yes"/>
      <point x="414" y="299"/>
      <point x="476" y="231"/>
      <point x="476" y="141" type="curve" smooth="yes"/>
      <point x="476" y="43"/>
      <point x="440" y="0"/>
    </contour>
  </outline>
</glyph>
<glyph name="p" format="1">
  <advance width="724"/>
  <unicode hex="0070"/>
  <outline>
    <contour>
      <point x="50" y="-206" type="curve" smooth="yes"/>
      <point x="108" y="-206"/>
      <point x="117" y="-203"/>
      <point x="169" y="-203" type="curve" smooth="yes"/>
      <point x="221" y="-203"/>
      <point x="251" y="-206"/>
      <point x="308" y="-206" type="curve" smooth="yes"/>
      <point x="320" y="-206"/>
      <point x="341" y="-206"/>
      <point x="341" y="-202" type="curve" smooth="yes"/>
      <point x="341" y="-197"/>
      <point x="329" y="-195"/>
      <point x="318" y="-192" type="curve"/>
      <point x="298" y="-190"/>
      <point x="260" y="-188"/>
      <point x="260" y="-174" type="curve" smooth="yes"/>
      <point x="260" y="-28" type="line" smooth="yes"/>
      <point x="260" y="-23"/>
      <point x="261" y="18"/>
      <point x="264" y="18" type="curve"/>
      <point x="290" y="-3"/>
      <point x="358" y="-14"/>
      <point x="395" y="-14" type="curve" smooth="yes"/>
      <point x="559" y="-14"/>
      <point x="689" y="78"/>
      <point x="689" y="170" type="curve" smooth="yes"/>
      <point x="689" y="241"/>
      <point x="609" y="313"/>
      <point x="474" y="314" type="curve" smooth="yes"/>
      <point x="392" y="314"/>
      <point x="288" y="286"/>
      <point x="263" y="274" type="curve"/>
      <point x="262" y="281"/>
      <point x="262" y="284"/>
      <point x="262" y="285" type="curve" smooth="yes"/>
      <point x="262" y="292"/>
      <point x="267" y="312"/>
      <point x="267" y="321" type="curve" smooth="yes"/>
      <point x="267" y="323"/>
      <point x="264" y="326"/>
      <point x="261" y="326" type="curve" smooth="yes"/>
      <point x="260" y="326"/>
      <point x="260" y="325"/>
      <point x="259" y="325" type="curve"/>
      <point x="200" y="312"/>
      <point x="138" y="299"/>
      <point x="44" y="285" type="curve" smooth="yes"/>
      <point x="36" y="284"/>
      <point x="31" y="282"/>
      <point x="31" y="278" type="curve" smooth="yes"/>
      <point x="31" y="275"/>
      <point x="34" y="272"/>
      <point x="39" y="272" type="curve" smooth="yes"/>
      <point x="76" y="268"/>
      <point x="85" y="242"/>
      <point x="85" y="216" type="curve" smooth="yes"/>
      <point x="85" y="-174" type="line" smooth="yes"/>
      <point x="85" y="-188"/>
      <point x="62" y="-190"/>
      <point x="42" y="-192" type="curve"/>
      <point x="31" y="-195"/>
      <point x="19" y="-197"/>
      <point x="19" y="-202" type="curve" smooth="yes"/>
      <point x="19" y="-206"/>
      <point x="40" y="-206"/>
    </contour>
    <contour>
      <point x="379" y="-4" type="curve" smooth="yes"/>
      <point x="305" y="-4"/>
      <point x="260" y="3"/>
      <point x="260" y="118" type="curve" smooth="yes"/>
      <point x="260" y="138"/>
      <point x="263" y="196"/>
      <point x="263" y="250" type="curve" smooth="yes"/>
      <point x="263" y="260"/>
      <point x="325" y="287"/>
      <point x="373" y="287" type="curve" smooth="yes"/>
      <point x="449" y="287"/>
      <point x="509" y="228"/>
      <point x="509" y="141" type="curve" smooth="yes"/>
      <point x="509" y="38"/>
      <point x="450" y="-4"/>
    </contour>
  </outline>
</glyph>
<glyph name="t" format="1">
  <advance width="419"/>
  <unicode hex="0074"/>
  <outline>
    <contour>
      <point x="238" y="-14" type="curve" smooth="yes"/>
      <point x="328" y="-14"/>
      <point x="411" y="37"/>
      <point x="411" y="50" type="curve" smooth="yes"/>
      <point x="411" y="54"/>
      <point x="411" y="55"/>
      <point x="409" y="55" type="curve" smooth="yes"/>
      <point x="406" y="55"/>
      <point x="404" y="52"/>
      <point x="401" y="50" type="curve" smooth="yes"/>
      <point x="373" y="28"/>
      <point x="356" y="18"/>
      <point x="330" y="18" type="curve" smooth="yes"/>
      <point x="288" y="18"/>
      <point x="260" y="52"/>
      <point x="260" y="110" type="curve" smooth="yes"/>
      <point x="260" y="272" type="line" smooth="yes"/>
      <point x="260" y="283"/>
      <point x="266" y="283"/>
      <point x="300" y="283" type="curve" smooth="yes"/>
      <point x="399" y="283" type="line" smooth="yes"/>
      <point x="404" y="283"/>
      <point x="409" y="288"/>
      <point x="409" y="292" type="curve" smooth="yes"/>
      <point x="409" y="296"/>
      <point x="404" y="300"/>
      <point x="399" y="300" type="curve" smooth="yes"/>
      <point x="285" y="300" type="line" smooth="yes"/>
      <point x="268" y="300"/>
      <point x="259" y="304"/>
      <point x="261" y="319" type="curve" smooth="yes"/>
      <point x="265" y="358" type="line" smooth="yes"/>
      <point x="267" y="372"/>
      <point x="262" y="375"/>
      <point x="248" y="375" type="curve" smooth="yes"/>
      <point x="238" y="375"/>
      <point x="230" y="371"/>
      <point x="215" y="362" type="curve" smooth="yes"/>
      <point x="183" y="330"/>
      <point x="133" y="305"/>
      <point x="55" y="302" type="curve" smooth="yes"/>
      <point x="44" y="301"/>
      <point x="35" y="296"/>
      <point x="35" y="290" type="curve" smooth="yes"/>
      <point x="35" y="283"/>
      <point x="40" y="283"/>
      <point x="47" y="283" type="curve" smooth="yes"/>
      <point x="53" y="283" type="line"/>
      <point x="79" y="283"/>
      <point x="85" y="280"/>
      <point x="85" y="272" type="curve" smooth="yes"/>
      <point x="85" y="105" type="line" smooth="yes"/>
      <point x="85" y="26"/>
      <point x="143" y="-14"/>
    </contour>
  </outline>
</glyph>
<glyph name="w" format="1">
  <advance width="915"/>
  <unicode hex="0077"/>
  <outline>
    <contour>
      <point x="281" y="-23" type="curve" smooth="yes"/>
      <point x="307" y="-23"/>
      <point x="336" y="-20"/>
      <point x="352" y="-16" type="curve"/>
      <point x="447" y="214" type="line" smooth="yes"/>
      <point x="451" y="220"/>
      <point x="454" y="222"/>
      <point x="456" y="222" type="curve" smooth="yes"/>
      <point x="458" y="223"/>
      <point x="462" y="221"/>
      <point x="465" y="216" type="curve" smooth="yes"/>
      <point x="573" y="-16" type="line"/>
      <point x="589" y="-20"/>
      <point x="614" y="-23"/>
      <point x="638" y="-23" type="curve" smooth="yes"/>
      <point x="668" y="-23"/>
      <point x="693" y="-20"/>
      <point x="708" y="-16" type="curve"/>
      <point x="849" y="236" type="line" smooth="yes"/>
      <point x="875" y="285"/>
      <point x="884" y="292"/>
      <point x="909" y="293" type="curve"/>
      <point x="921" y="294"/>
      <point x="930" y="297"/>
      <point x="930" y="301" type="curve" smooth="yes"/>
      <point x="930" y="305"/>
      <point x="918" y="305"/>
      <point x="910" y="305" type="curve" smooth="yes"/>
      <point x="888" y="305"/>
      <point x="879" y="303"/>
      <point x="842" y="303" type="curve" smooth="yes"/>
      <point x="806" y="303"/>
      <point x="797" y="305"/>
      <point x="768" y="305" type="curve" smooth="yes"/>
      <point x="761" y="305"/>
      <point x="748" y="305"/>
      <point x="748" y="301" type="curve" smooth="yes"/>
      <point x="748" y="297"/>
      <point x="761" y="294"/>
      <point x="774" y="293" type="curve" smooth="yes"/>
      <point x="817" y="288"/>
      <point x="831" y="279"/>
      <point x="831" y="258" type="curve" smooth="yes"/>
      <point x="831" y="247"/>
      <point x="824" y="243"/>
      <point x="812" y="224" type="curve" smooth="yes"/>
      <point x="740" y="53" type="line" smooth="yes"/>
      <point x="736" y="47"/>
      <point x="730" y="44"/>
      <point x="727" y="44" type="curve" smooth="yes"/>
      <point x="725" y="44"/>
      <point x="723" y="49"/>
      <point x="719" y="55" type="curve" smooth="yes"/>
      <point x="653" y="220" type="line" smooth="yes"/>
      <point x="643" y="238"/>
      <point x="634" y="253"/>
      <point x="634" y="265" type="curve" smooth="yes"/>
      <point x="635" y="272"/>
      <point x="635" y="285"/>
      <point x="659" y="291" type="curve" smooth="yes"/>
      <point x="669" y="294"/>
      <point x="682" y="295"/>
      <point x="682" y="301" type="curve" smooth="yes"/>
      <point x="682" y="305"/>
      <point x="662" y="305"/>
      <point x="651" y="305" type="curve" smooth="yes"/>
      <point x="616" y="305"/>
      <point x="575" y="302"/>
      <point x="517" y="302" type="curve" smooth="yes"/>
      <point x="459" y="302"/>
      <point x="427" y="305"/>
      <point x="399" y="305" type="curve" smooth="yes"/>
      <point x="386" y="305"/>
      <point x="367" y="305"/>
      <point x="367" y="301" type="curve" smooth="yes"/>
      <point x="367" y="295"/>
      <point x="380" y="293"/>
      <point x="390" y="291" type="curve" smooth="yes"/>
      <point x="431" y="285"/>
      <point x="438" y="272"/>
      <point x="438" y="249" type="curve" smooth="yes"/>
      <point x="438" y="235"/>
      <point x="431" y="220"/>
      <point x="419" y="194" type="curve" smooth="yes"/>
      <point x="370" y="56" type="line" smooth="yes"/>
      <point x="367" y="52"/>
      <point x="367" y="52"/>
      <point x="365" y="52" type="curve" smooth="yes"/>
      <point x="363" y="52"/>
      <point x="361" y="54"/>
      <point x="360" y="56" type="curve" smooth="yes"/>
      <point x="280" y="237" type="line" smooth="yes"/>
      <point x="275" y="246"/>
      <point x="271" y="258"/>
      <point x="271" y="267" type="curve" smooth="yes"/>
      <point x="271" y="279"/>
      <point x="274" y="290"/>
      <point x="293" y="293" type="curve"/>
      <point x="304" y="295"/>
      <point x="316" y="296"/>
      <point x="316" y="301" type="curve" smooth="yes"/>
      <point x="316" y="305"/>
      <point x="293" y="305"/>
      <point x="284" y="305" type="curve" smooth="yes"/>
      <point x="240" y="305"/>
      <point x="197" y="302"/>
      <point x="153" y="302" type="curve" smooth="yes"/>
      <point x="111" y="302"/>
      <point x="77" y="305"/>
      <point x="37" y="305" type="curve" smooth="yes"/>
      <point x="26" y="305"/>
      <point x="5" y="305"/>
      <point x="5" y="301" type="curve" smooth="yes"/>
      <point x="5" y="296"/>
      <point x="17" y="295"/>
      <point x="28" y="293" type="curve"/>
      <point x="47" y="289"/>
      <point x="61" y="267"/>
      <point x="76" y="244" type="curve" smooth="yes"/>
      <point x="217" y="-16" type="line"/>
      <point x="226" y="-20"/>
      <point x="255" y="-23"/>
    </contour>
  </outline>
</glyph>
<glyph name="y" format="1">
  <advance width="554"/>
  <unicode hex="0079"/>
  <outline>
    <contour>
      <point x="142" y="-213" type="curve" smooth="yes"/>
      <point x="98" y="-213"/>
      <point x="64" y="-199"/>
      <point x="64" y="-162" type="curve" smooth="yes"/>
      <point x="64" y="-132"/>
      <point x="85" y="-106"/>
      <point x="124" y="-106" type="curve" smooth="yes"/>
      <point x="167" y="-106"/>
      <point x="186" y="-146"/>
      <point x="201" y="-146" type="curve" smooth="yes"/>
      <point x="211" y="-146"/>
      <point x="220" y="-142"/>
      <point x="226" y="-134" type="curve" smooth="yes"/>
      <point x="258" y="-91"/>
      <point x="261" y="-112"/>
      <point x="270" y="-124" type="curve"/>
      <point x="276" y="-117"/>
      <point x="280" y="-108"/>
      <point x="279" y="-100" type="curve" smooth="yes"/>
      <point x="279" y="-91"/>
      <point x="274" y="-83"/>
      <point x="269" y="-74" type="curve" smooth="yes"/>
      <point x="80" y="251" type="line" smooth="yes"/>
      <point x="64" y="280"/>
      <point x="39" y="291"/>
      <point x="19" y="295" type="curve"/>
      <point x="6" y="298"/>
      <point x="5" y="299"/>
      <point x="5" y="302" type="curve" smooth="yes"/>
      <point x="5" y="306"/>
      <point x="26" y="306"/>
      <point x="37" y="306" type="curve" smooth="yes"/>
      <point x="99" y="306"/>
      <point x="99" y="304"/>
      <point x="155" y="304" type="curve" smooth="yes"/>
      <point x="212" y="304"/>
      <point x="214" y="306"/>
      <point x="275" y="306" type="curve" smooth="yes"/>
      <point x="285" y="306"/>
      <point x="307" y="306"/>
      <point x="307" y="302" type="curve" smooth="yes"/>
      <point x="307" y="302"/>
      <point x="306" y="306"/>
      <point x="294" y="304" type="curve" smooth="yes"/>
      <point x="274" y="301"/>
      <point x="268" y="277"/>
      <point x="268" y="265" type="curve" smooth="yes"/>
      <point x="268" y="258"/>
      <point x="264" y="259"/>
      <point x="269" y="249" type="curve" smooth="yes"/>
      <point x="361" y="53" type="line" smooth="yes"/>
      <point x="362" y="52"/>
      <point x="361" y="55"/>
      <point x="360" y="55" type="curve" smooth="yes"/>
      <point x="359" y="55"/>
      <point x="358" y="52"/>
      <point x="359" y="52" type="curve" smooth="yes"/>
      <point x="453" y="250" type="line"/>
      <point x="458" y="263"/>
      <point x="459" y="270"/>
      <point x="459" y="282" type="curve" smooth="yes"/>
      <point x="459" y="294"/>
      <point x="447" y="306"/>
      <point x="416" y="307" type="curve" smooth="yes"/>
      <point x="389" y="311"/>
      <point x="399" y="304"/>
      <point x="399" y="305" type="curve" smooth="yes"/>
      <point x="399" y="309"/>
      <point x="407" y="306"/>
      <point x="419" y="306" type="curve" smooth="yes"/>
      <point x="430" y="306"/>
      <point x="448" y="304"/>
      <point x="480" y="304" type="curve" smooth="yes"/>
      <point x="512" y="304"/>
      <point x="524" y="306"/>
      <point x="539" y="306" type="curve" smooth="yes"/>
      <point x="553" y="306"/>
      <point x="559" y="306"/>
      <point x="559" y="302" type="curve" smooth="yes"/>
      <point x="559" y="301"/>
      <point x="559" y="299"/>
      <point x="537" y="294" type="curve"/>
      <point x="517" y="293"/>
      <point x="491" y="285"/>
      <point x="470" y="246" type="curve"/>
      <point x="242" y="-158" type="line"/>
      <point x="222" y="-194"/>
      <point x="186" y="-213"/>
    </contour>
  </outline>
</glyph>
<glyph name="asciitilde" format="1">
  <advance width="500"/>
  <unicode hex="007E"/>
  <outline>
    <contour>
      <point x="337" y="217" type="curve" smooth="yes"/>
      <point x="383" y="217"/>
      <point x="439" y="274"/>
      <point x="439" y="301" type="curve" smooth="yes"/>
      <point x="439" y="306"/>
      <point x="433" y="308"/>
      <point x="431" y="308" type="curve" smooth="yes"/>
      <point x="429" y="308"/>
      <point x="390" y="237"/>
      <point x="335" y="237" type="curve" smooth="yes"/>
      <point x="312" y="237"/>
      <point x="287" y="255"/>
      <point x="261" y="274" type="curve" smooth="yes"/>
      <point x="233" y="296"/>
      <point x="202" y="317"/>
      <point x="168" y="317" type="curve" smooth="yes"/>
      <point x="98" y="317"/>
      <point x="51" y="248"/>
      <point x="51" y="227" type="curve" smooth="yes"/>
      <point x="51" y="224"/>
      <point x="55" y="221"/>
      <point x="58" y="221" type="curve" smooth="yes"/>
      <point x="64" y="221"/>
      <point x="97" y="295"/>
      <point x="165" y="295" type="curve" smooth="yes"/>
      <point x="195" y="295"/>
      <point x="222" y="276"/>
      <point x="250" y="256" type="curve" smooth="yes"/>
      <point x="278" y="235"/>
      <point x="307" y="217"/>
    </contour>
  </outline>
</glyph>
